<mxfile host="app.diagrams.net" agent="Mozilla/5.0 (Windows NT 10.0; Win64; x64) AppleWebKit/537.36 (KHTML, like Gecko) Chrome/135.0.0.0 Safari/537.36" version="26.1.1" pages="6">
  <diagram name="Wireframe-Аналитика" id="PikvN2ZLqPPSW6z6FVZE">
    <mxGraphModel dx="4097" dy="2131" grid="1" gridSize="10" guides="1" tooltips="1" connect="1" arrows="1" fold="1" page="1" pageScale="1" pageWidth="2336" pageHeight="1654" math="0" shadow="0">
      <root>
        <mxCell id="0" />
        <mxCell id="1" parent="0" />
        <mxCell id="oXKqlb1db90uz7hYpH-F-1" value="" style="rounded=0;whiteSpace=wrap;html=1;movable=1;resizable=1;rotatable=1;deletable=1;editable=1;locked=0;connectable=1;" parent="1" vertex="1">
          <mxGeometry width="1920" height="1170" as="geometry" />
        </mxCell>
        <mxCell id="oXKqlb1db90uz7hYpH-F-2" value="" style="rounded=0;whiteSpace=wrap;html=1;movable=1;resizable=1;rotatable=1;deletable=1;editable=1;locked=0;connectable=1;" parent="1" vertex="1">
          <mxGeometry width="1920" height="120" as="geometry" />
        </mxCell>
        <mxCell id="oXKqlb1db90uz7hYpH-F-3" value="" style="endArrow=none;html=1;rounded=0;movable=1;resizable=1;rotatable=1;deletable=1;editable=1;locked=0;connectable=1;" parent="1" edge="1">
          <mxGeometry width="50" height="50" relative="1" as="geometry">
            <mxPoint y="120" as="sourcePoint" />
            <mxPoint x="1920" as="targetPoint" />
          </mxGeometry>
        </mxCell>
        <mxCell id="oXKqlb1db90uz7hYpH-F-4" value="" style="endArrow=none;html=1;rounded=0;movable=1;resizable=1;rotatable=1;deletable=1;editable=1;locked=0;connectable=1;" parent="1" edge="1">
          <mxGeometry width="50" height="50" relative="1" as="geometry">
            <mxPoint as="sourcePoint" />
            <mxPoint x="1920" y="120" as="targetPoint" />
          </mxGeometry>
        </mxCell>
        <mxCell id="oXKqlb1db90uz7hYpH-F-5" value="&lt;font style=&quot;font-size: 72px;&quot;&gt;Аналитика продаж&lt;/font&gt;" style="text;html=1;strokeColor=none;fillColor=none;align=center;verticalAlign=middle;whiteSpace=wrap;rounded=0;movable=1;resizable=1;rotatable=1;deletable=1;editable=1;locked=0;connectable=1;" parent="1" vertex="1">
          <mxGeometry x="140" y="150" width="780" height="100" as="geometry" />
        </mxCell>
        <mxCell id="oXKqlb1db90uz7hYpH-F-11" value="" style="group;movable=1;resizable=1;rotatable=1;deletable=1;editable=1;locked=0;connectable=1;" parent="1" vertex="1" connectable="0">
          <mxGeometry x="1160" y="160" width="190" height="70" as="geometry" />
        </mxCell>
        <mxCell id="oXKqlb1db90uz7hYpH-F-12" value="" style="rounded=0;whiteSpace=wrap;html=1;movable=1;resizable=1;rotatable=1;deletable=1;editable=1;locked=0;connectable=1;" parent="oXKqlb1db90uz7hYpH-F-11" vertex="1">
          <mxGeometry y="30" width="190" height="40" as="geometry" />
        </mxCell>
        <mxCell id="oXKqlb1db90uz7hYpH-F-13" value="" style="endArrow=none;html=1;rounded=0;exitX=0;exitY=1;exitDx=0;exitDy=0;entryX=1;entryY=0;entryDx=0;entryDy=0;movable=1;resizable=1;rotatable=1;deletable=1;editable=1;locked=0;connectable=1;" parent="oXKqlb1db90uz7hYpH-F-11" source="oXKqlb1db90uz7hYpH-F-12" target="oXKqlb1db90uz7hYpH-F-12" edge="1">
          <mxGeometry width="50" height="50" relative="1" as="geometry">
            <mxPoint x="220" y="160" as="sourcePoint" />
            <mxPoint x="270" y="110" as="targetPoint" />
          </mxGeometry>
        </mxCell>
        <mxCell id="oXKqlb1db90uz7hYpH-F-14" value="" style="endArrow=none;html=1;rounded=0;exitX=0;exitY=0;exitDx=0;exitDy=0;entryX=1;entryY=1;entryDx=0;entryDy=0;movable=1;resizable=1;rotatable=1;deletable=1;editable=1;locked=0;connectable=1;" parent="oXKqlb1db90uz7hYpH-F-11" source="oXKqlb1db90uz7hYpH-F-12" target="oXKqlb1db90uz7hYpH-F-12" edge="1">
          <mxGeometry width="50" height="50" relative="1" as="geometry">
            <mxPoint x="220" y="160" as="sourcePoint" />
            <mxPoint x="270" y="110" as="targetPoint" />
          </mxGeometry>
        </mxCell>
        <mxCell id="oXKqlb1db90uz7hYpH-F-15" value="&lt;font style=&quot;font-size: 24px;&quot;&gt;Дата конца&lt;/font&gt;" style="text;html=1;strokeColor=none;fillColor=none;align=center;verticalAlign=middle;whiteSpace=wrap;rounded=0;movable=1;resizable=1;rotatable=1;deletable=1;editable=1;locked=0;connectable=1;" parent="oXKqlb1db90uz7hYpH-F-11" vertex="1">
          <mxGeometry width="190" height="30" as="geometry" />
        </mxCell>
        <mxCell id="oXKqlb1db90uz7hYpH-F-16" value="" style="group;movable=1;resizable=1;rotatable=1;deletable=1;editable=1;locked=0;connectable=1;" parent="1" vertex="1" connectable="0">
          <mxGeometry x="1380" y="160" width="80" height="70" as="geometry" />
        </mxCell>
        <mxCell id="oXKqlb1db90uz7hYpH-F-17" value="" style="rounded=0;whiteSpace=wrap;html=1;movable=1;resizable=1;rotatable=1;deletable=1;editable=1;locked=0;connectable=1;" parent="oXKqlb1db90uz7hYpH-F-16" vertex="1">
          <mxGeometry y="30" width="80" height="40" as="geometry" />
        </mxCell>
        <mxCell id="oXKqlb1db90uz7hYpH-F-18" value="" style="endArrow=none;html=1;rounded=0;exitX=0;exitY=1;exitDx=0;exitDy=0;entryX=1;entryY=0;entryDx=0;entryDy=0;movable=1;resizable=1;rotatable=1;deletable=1;editable=1;locked=0;connectable=1;" parent="oXKqlb1db90uz7hYpH-F-16" source="oXKqlb1db90uz7hYpH-F-17" target="oXKqlb1db90uz7hYpH-F-17" edge="1">
          <mxGeometry width="50" height="50" relative="1" as="geometry">
            <mxPoint x="92.63157894736842" y="160" as="sourcePoint" />
            <mxPoint x="113.68421052631578" y="110" as="targetPoint" />
          </mxGeometry>
        </mxCell>
        <mxCell id="oXKqlb1db90uz7hYpH-F-19" value="" style="endArrow=none;html=1;rounded=0;exitX=0;exitY=0;exitDx=0;exitDy=0;entryX=1;entryY=1;entryDx=0;entryDy=0;movable=1;resizable=1;rotatable=1;deletable=1;editable=1;locked=0;connectable=1;" parent="oXKqlb1db90uz7hYpH-F-16" source="oXKqlb1db90uz7hYpH-F-17" target="oXKqlb1db90uz7hYpH-F-17" edge="1">
          <mxGeometry width="50" height="50" relative="1" as="geometry">
            <mxPoint x="92.63157894736842" y="160" as="sourcePoint" />
            <mxPoint x="113.68421052631578" y="110" as="targetPoint" />
          </mxGeometry>
        </mxCell>
        <mxCell id="oXKqlb1db90uz7hYpH-F-26" value="" style="endArrow=none;html=1;rounded=0;movable=1;resizable=1;rotatable=1;deletable=1;editable=1;locked=0;connectable=1;" parent="1" edge="1">
          <mxGeometry width="50" height="50" relative="1" as="geometry">
            <mxPoint x="200" y="350" as="sourcePoint" />
            <mxPoint x="1670" y="350" as="targetPoint" />
          </mxGeometry>
        </mxCell>
        <mxCell id="oXKqlb1db90uz7hYpH-F-35" value="" style="group;movable=1;resizable=1;rotatable=1;deletable=1;editable=1;locked=0;connectable=1;" parent="1" vertex="1" connectable="0">
          <mxGeometry x="200" y="550" width="820" height="590" as="geometry" />
        </mxCell>
        <mxCell id="oXKqlb1db90uz7hYpH-F-29" value="" style="rounded=0;whiteSpace=wrap;html=1;movable=1;resizable=1;rotatable=1;deletable=1;editable=1;locked=0;connectable=1;" parent="oXKqlb1db90uz7hYpH-F-35" vertex="1">
          <mxGeometry y="50" width="819.9999999999999" height="540" as="geometry" />
        </mxCell>
        <mxCell id="oXKqlb1db90uz7hYpH-F-30" value="" style="endArrow=none;html=1;rounded=0;exitX=0;exitY=1;exitDx=0;exitDy=0;entryX=1;entryY=0;entryDx=0;entryDy=0;movable=1;resizable=1;rotatable=1;deletable=1;editable=1;locked=0;connectable=1;" parent="oXKqlb1db90uz7hYpH-F-35" source="oXKqlb1db90uz7hYpH-F-29" target="oXKqlb1db90uz7hYpH-F-29" edge="1">
          <mxGeometry width="50" height="50" relative="1" as="geometry">
            <mxPoint x="949.4736842105262" y="1348.5714285714287" as="sourcePoint" />
            <mxPoint x="1165.2631578947367" y="927.1428571428573" as="targetPoint" />
          </mxGeometry>
        </mxCell>
        <mxCell id="oXKqlb1db90uz7hYpH-F-31" value="" style="endArrow=none;html=1;rounded=0;exitX=0;exitY=0;exitDx=0;exitDy=0;entryX=1;entryY=1;entryDx=0;entryDy=0;movable=1;resizable=1;rotatable=1;deletable=1;editable=1;locked=0;connectable=1;" parent="oXKqlb1db90uz7hYpH-F-35" source="oXKqlb1db90uz7hYpH-F-29" target="oXKqlb1db90uz7hYpH-F-29" edge="1">
          <mxGeometry width="50" height="50" relative="1" as="geometry">
            <mxPoint x="949.4736842105262" y="1348.5714285714287" as="sourcePoint" />
            <mxPoint x="1165.2631578947367" y="927.1428571428573" as="targetPoint" />
          </mxGeometry>
        </mxCell>
        <mxCell id="oXKqlb1db90uz7hYpH-F-32" value="&lt;font style=&quot;font-size: 24px;&quot;&gt;График&lt;/font&gt;" style="text;html=1;strokeColor=none;fillColor=none;align=center;verticalAlign=middle;whiteSpace=wrap;rounded=0;movable=1;resizable=1;rotatable=1;deletable=1;editable=1;locked=0;connectable=1;" parent="oXKqlb1db90uz7hYpH-F-35" vertex="1">
          <mxGeometry width="819.9999999999999" height="50" as="geometry" />
        </mxCell>
        <mxCell id="oXKqlb1db90uz7hYpH-F-36" value="" style="group;movable=1;resizable=1;rotatable=1;deletable=1;editable=1;locked=0;connectable=1;" parent="1" vertex="1" connectable="0">
          <mxGeometry x="1070" y="550" width="600" height="590" as="geometry" />
        </mxCell>
        <mxCell id="oXKqlb1db90uz7hYpH-F-37" value="" style="rounded=0;whiteSpace=wrap;html=1;movable=1;resizable=1;rotatable=1;deletable=1;editable=1;locked=0;connectable=1;" parent="oXKqlb1db90uz7hYpH-F-36" vertex="1">
          <mxGeometry y="50" width="600" height="540" as="geometry" />
        </mxCell>
        <mxCell id="oXKqlb1db90uz7hYpH-F-38" value="" style="endArrow=none;html=1;rounded=0;exitX=0;exitY=1;exitDx=0;exitDy=0;entryX=1;entryY=0;entryDx=0;entryDy=0;movable=1;resizable=1;rotatable=1;deletable=1;editable=1;locked=0;connectable=1;" parent="oXKqlb1db90uz7hYpH-F-36" source="oXKqlb1db90uz7hYpH-F-37" target="oXKqlb1db90uz7hYpH-F-37" edge="1">
          <mxGeometry width="50" height="50" relative="1" as="geometry">
            <mxPoint x="694.7368421052632" y="1348.5714285714287" as="sourcePoint" />
            <mxPoint x="852.6315789473683" y="927.1428571428573" as="targetPoint" />
          </mxGeometry>
        </mxCell>
        <mxCell id="oXKqlb1db90uz7hYpH-F-39" value="" style="endArrow=none;html=1;rounded=0;exitX=0;exitY=0;exitDx=0;exitDy=0;entryX=1;entryY=1;entryDx=0;entryDy=0;movable=1;resizable=1;rotatable=1;deletable=1;editable=1;locked=0;connectable=1;" parent="oXKqlb1db90uz7hYpH-F-36" source="oXKqlb1db90uz7hYpH-F-37" target="oXKqlb1db90uz7hYpH-F-37" edge="1">
          <mxGeometry width="50" height="50" relative="1" as="geometry">
            <mxPoint x="694.7368421052632" y="1348.5714285714287" as="sourcePoint" />
            <mxPoint x="852.6315789473683" y="927.1428571428573" as="targetPoint" />
          </mxGeometry>
        </mxCell>
        <mxCell id="oXKqlb1db90uz7hYpH-F-40" value="&lt;font style=&quot;font-size: 24px;&quot;&gt;Диаграмма&lt;/font&gt;" style="text;html=1;strokeColor=none;fillColor=none;align=center;verticalAlign=middle;whiteSpace=wrap;rounded=0;movable=1;resizable=1;rotatable=1;deletable=1;editable=1;locked=0;connectable=1;" parent="oXKqlb1db90uz7hYpH-F-36" vertex="1">
          <mxGeometry width="600" height="50" as="geometry" />
        </mxCell>
        <mxCell id="oXKqlb1db90uz7hYpH-F-6" value="" style="rounded=0;whiteSpace=wrap;html=1;movable=1;resizable=1;rotatable=1;deletable=1;editable=1;locked=0;connectable=1;" parent="1" vertex="1">
          <mxGeometry x="930" y="190" width="190" height="40" as="geometry" />
        </mxCell>
        <mxCell id="oXKqlb1db90uz7hYpH-F-7" value="" style="endArrow=none;html=1;rounded=0;exitX=0;exitY=1;exitDx=0;exitDy=0;entryX=1;entryY=0;entryDx=0;entryDy=0;movable=1;resizable=1;rotatable=1;deletable=1;editable=1;locked=0;connectable=1;" parent="1" source="oXKqlb1db90uz7hYpH-F-6" target="oXKqlb1db90uz7hYpH-F-6" edge="1">
          <mxGeometry width="50" height="50" relative="1" as="geometry">
            <mxPoint x="430" y="410" as="sourcePoint" />
            <mxPoint x="480" y="360" as="targetPoint" />
          </mxGeometry>
        </mxCell>
        <mxCell id="oXKqlb1db90uz7hYpH-F-8" value="" style="endArrow=none;html=1;rounded=0;exitX=0;exitY=0;exitDx=0;exitDy=0;entryX=1;entryY=1;entryDx=0;entryDy=0;movable=1;resizable=1;rotatable=1;deletable=1;editable=1;locked=0;connectable=1;" parent="1" source="oXKqlb1db90uz7hYpH-F-6" target="oXKqlb1db90uz7hYpH-F-6" edge="1">
          <mxGeometry width="50" height="50" relative="1" as="geometry">
            <mxPoint x="430" y="410" as="sourcePoint" />
            <mxPoint x="480" y="360" as="targetPoint" />
          </mxGeometry>
        </mxCell>
        <mxCell id="oXKqlb1db90uz7hYpH-F-9" value="&lt;font style=&quot;font-size: 24px;&quot;&gt;Дата начала&lt;/font&gt;" style="text;html=1;strokeColor=none;fillColor=none;align=center;verticalAlign=middle;whiteSpace=wrap;rounded=0;movable=1;resizable=1;rotatable=1;deletable=1;editable=1;locked=0;connectable=1;" parent="1" vertex="1">
          <mxGeometry x="930" y="160" width="190" height="30" as="geometry" />
        </mxCell>
        <mxCell id="oXKqlb1db90uz7hYpH-F-21" value="" style="group;movable=1;resizable=1;rotatable=1;deletable=1;editable=1;locked=0;connectable=1;" parent="1" vertex="1" connectable="0">
          <mxGeometry x="200" y="260" width="340" height="70" as="geometry" />
        </mxCell>
        <mxCell id="oXKqlb1db90uz7hYpH-F-22" value="" style="rounded=0;whiteSpace=wrap;html=1;movable=1;resizable=1;rotatable=1;deletable=1;editable=1;locked=0;connectable=1;" parent="oXKqlb1db90uz7hYpH-F-21" vertex="1">
          <mxGeometry y="30" width="340" height="40" as="geometry" />
        </mxCell>
        <mxCell id="oXKqlb1db90uz7hYpH-F-23" value="" style="endArrow=none;html=1;rounded=0;exitX=0;exitY=1;exitDx=0;exitDy=0;entryX=1;entryY=0;entryDx=0;entryDy=0;movable=1;resizable=1;rotatable=1;deletable=1;editable=1;locked=0;connectable=1;" parent="oXKqlb1db90uz7hYpH-F-21" source="oXKqlb1db90uz7hYpH-F-22" target="oXKqlb1db90uz7hYpH-F-22" edge="1">
          <mxGeometry width="50" height="50" relative="1" as="geometry">
            <mxPoint x="393.6842105263158" y="160" as="sourcePoint" />
            <mxPoint x="483.1578947368421" y="110" as="targetPoint" />
          </mxGeometry>
        </mxCell>
        <mxCell id="oXKqlb1db90uz7hYpH-F-24" value="" style="endArrow=none;html=1;rounded=0;exitX=0;exitY=0;exitDx=0;exitDy=0;entryX=1;entryY=1;entryDx=0;entryDy=0;movable=1;resizable=1;rotatable=1;deletable=1;editable=1;locked=0;connectable=1;" parent="oXKqlb1db90uz7hYpH-F-21" source="oXKqlb1db90uz7hYpH-F-22" target="oXKqlb1db90uz7hYpH-F-22" edge="1">
          <mxGeometry width="50" height="50" relative="1" as="geometry">
            <mxPoint x="393.6842105263158" y="160" as="sourcePoint" />
            <mxPoint x="483.1578947368421" y="110" as="targetPoint" />
          </mxGeometry>
        </mxCell>
        <mxCell id="oXKqlb1db90uz7hYpH-F-25" value="&lt;font style=&quot;font-size: 24px;&quot;&gt;Дашборд&lt;/font&gt;" style="text;html=1;strokeColor=none;fillColor=none;align=center;verticalAlign=middle;whiteSpace=wrap;rounded=0;movable=1;resizable=1;rotatable=1;deletable=1;editable=1;locked=0;connectable=1;" parent="oXKqlb1db90uz7hYpH-F-21" vertex="1">
          <mxGeometry width="340" height="30" as="geometry" />
        </mxCell>
        <mxCell id="ng7K6PVkUtKimRaw6roi-21" value="" style="group;movable=1;resizable=1;rotatable=1;deletable=1;editable=1;locked=0;connectable=1;" vertex="1" connectable="0" parent="1">
          <mxGeometry x="580" y="260" width="340" height="70" as="geometry" />
        </mxCell>
        <mxCell id="ng7K6PVkUtKimRaw6roi-22" value="" style="rounded=0;whiteSpace=wrap;html=1;movable=1;resizable=1;rotatable=1;deletable=1;editable=1;locked=0;connectable=1;" vertex="1" parent="ng7K6PVkUtKimRaw6roi-21">
          <mxGeometry y="30" width="340" height="40" as="geometry" />
        </mxCell>
        <mxCell id="ng7K6PVkUtKimRaw6roi-23" value="" style="endArrow=none;html=1;rounded=0;exitX=0;exitY=1;exitDx=0;exitDy=0;entryX=1;entryY=0;entryDx=0;entryDy=0;movable=1;resizable=1;rotatable=1;deletable=1;editable=1;locked=0;connectable=1;" edge="1" parent="ng7K6PVkUtKimRaw6roi-21" source="ng7K6PVkUtKimRaw6roi-22" target="ng7K6PVkUtKimRaw6roi-22">
          <mxGeometry width="50" height="50" relative="1" as="geometry">
            <mxPoint x="393.6842105263158" y="160" as="sourcePoint" />
            <mxPoint x="483.1578947368421" y="110" as="targetPoint" />
          </mxGeometry>
        </mxCell>
        <mxCell id="ng7K6PVkUtKimRaw6roi-24" value="" style="endArrow=none;html=1;rounded=0;exitX=0;exitY=0;exitDx=0;exitDy=0;entryX=1;entryY=1;entryDx=0;entryDy=0;movable=1;resizable=1;rotatable=1;deletable=1;editable=1;locked=0;connectable=1;" edge="1" parent="ng7K6PVkUtKimRaw6roi-21" source="ng7K6PVkUtKimRaw6roi-22" target="ng7K6PVkUtKimRaw6roi-22">
          <mxGeometry width="50" height="50" relative="1" as="geometry">
            <mxPoint x="393.6842105263158" y="160" as="sourcePoint" />
            <mxPoint x="483.1578947368421" y="110" as="targetPoint" />
          </mxGeometry>
        </mxCell>
        <mxCell id="ng7K6PVkUtKimRaw6roi-25" value="&lt;font style=&quot;font-size: 24px;&quot;&gt;Продажи&lt;/font&gt;" style="text;html=1;strokeColor=none;fillColor=none;align=center;verticalAlign=middle;whiteSpace=wrap;rounded=0;movable=1;resizable=1;rotatable=1;deletable=1;editable=1;locked=0;connectable=1;" vertex="1" parent="ng7K6PVkUtKimRaw6roi-21">
          <mxGeometry width="340" height="30" as="geometry" />
        </mxCell>
        <mxCell id="ng7K6PVkUtKimRaw6roi-26" value="" style="group;movable=1;resizable=1;rotatable=1;deletable=1;editable=1;locked=0;connectable=1;" vertex="1" connectable="0" parent="1">
          <mxGeometry x="960" y="260" width="340" height="70" as="geometry" />
        </mxCell>
        <mxCell id="ng7K6PVkUtKimRaw6roi-27" value="" style="rounded=0;whiteSpace=wrap;html=1;movable=1;resizable=1;rotatable=1;deletable=1;editable=1;locked=0;connectable=1;" vertex="1" parent="ng7K6PVkUtKimRaw6roi-26">
          <mxGeometry y="30" width="340" height="40" as="geometry" />
        </mxCell>
        <mxCell id="ng7K6PVkUtKimRaw6roi-28" value="" style="endArrow=none;html=1;rounded=0;exitX=0;exitY=1;exitDx=0;exitDy=0;entryX=1;entryY=0;entryDx=0;entryDy=0;movable=1;resizable=1;rotatable=1;deletable=1;editable=1;locked=0;connectable=1;" edge="1" parent="ng7K6PVkUtKimRaw6roi-26" source="ng7K6PVkUtKimRaw6roi-27" target="ng7K6PVkUtKimRaw6roi-27">
          <mxGeometry width="50" height="50" relative="1" as="geometry">
            <mxPoint x="393.6842105263158" y="160" as="sourcePoint" />
            <mxPoint x="483.1578947368421" y="110" as="targetPoint" />
          </mxGeometry>
        </mxCell>
        <mxCell id="ng7K6PVkUtKimRaw6roi-29" value="" style="endArrow=none;html=1;rounded=0;exitX=0;exitY=0;exitDx=0;exitDy=0;entryX=1;entryY=1;entryDx=0;entryDy=0;movable=1;resizable=1;rotatable=1;deletable=1;editable=1;locked=0;connectable=1;" edge="1" parent="ng7K6PVkUtKimRaw6roi-26" source="ng7K6PVkUtKimRaw6roi-27" target="ng7K6PVkUtKimRaw6roi-27">
          <mxGeometry width="50" height="50" relative="1" as="geometry">
            <mxPoint x="393.6842105263158" y="160" as="sourcePoint" />
            <mxPoint x="483.1578947368421" y="110" as="targetPoint" />
          </mxGeometry>
        </mxCell>
        <mxCell id="ng7K6PVkUtKimRaw6roi-30" value="&lt;font style=&quot;font-size: 24px;&quot;&gt;Заказы&lt;/font&gt;" style="text;html=1;strokeColor=none;fillColor=none;align=center;verticalAlign=middle;whiteSpace=wrap;rounded=0;movable=1;resizable=1;rotatable=1;deletable=1;editable=1;locked=0;connectable=1;" vertex="1" parent="ng7K6PVkUtKimRaw6roi-26">
          <mxGeometry width="340" height="30" as="geometry" />
        </mxCell>
        <mxCell id="ng7K6PVkUtKimRaw6roi-31" value="" style="group;movable=1;resizable=1;rotatable=1;deletable=1;editable=1;locked=0;connectable=1;" vertex="1" connectable="0" parent="1">
          <mxGeometry x="1330" y="260" width="340" height="70" as="geometry" />
        </mxCell>
        <mxCell id="ng7K6PVkUtKimRaw6roi-32" value="" style="rounded=0;whiteSpace=wrap;html=1;movable=1;resizable=1;rotatable=1;deletable=1;editable=1;locked=0;connectable=1;" vertex="1" parent="ng7K6PVkUtKimRaw6roi-31">
          <mxGeometry y="30" width="340" height="40" as="geometry" />
        </mxCell>
        <mxCell id="ng7K6PVkUtKimRaw6roi-33" value="" style="endArrow=none;html=1;rounded=0;exitX=0;exitY=1;exitDx=0;exitDy=0;entryX=1;entryY=0;entryDx=0;entryDy=0;movable=1;resizable=1;rotatable=1;deletable=1;editable=1;locked=0;connectable=1;" edge="1" parent="ng7K6PVkUtKimRaw6roi-31" source="ng7K6PVkUtKimRaw6roi-32" target="ng7K6PVkUtKimRaw6roi-32">
          <mxGeometry width="50" height="50" relative="1" as="geometry">
            <mxPoint x="393.6842105263158" y="160" as="sourcePoint" />
            <mxPoint x="483.1578947368421" y="110" as="targetPoint" />
          </mxGeometry>
        </mxCell>
        <mxCell id="ng7K6PVkUtKimRaw6roi-34" value="" style="endArrow=none;html=1;rounded=0;exitX=0;exitY=0;exitDx=0;exitDy=0;entryX=1;entryY=1;entryDx=0;entryDy=0;movable=1;resizable=1;rotatable=1;deletable=1;editable=1;locked=0;connectable=1;" edge="1" parent="ng7K6PVkUtKimRaw6roi-31" source="ng7K6PVkUtKimRaw6roi-32" target="ng7K6PVkUtKimRaw6roi-32">
          <mxGeometry width="50" height="50" relative="1" as="geometry">
            <mxPoint x="393.6842105263158" y="160" as="sourcePoint" />
            <mxPoint x="483.1578947368421" y="110" as="targetPoint" />
          </mxGeometry>
        </mxCell>
        <mxCell id="ng7K6PVkUtKimRaw6roi-35" value="&lt;font style=&quot;font-size: 24px;&quot;&gt;Отчеты&lt;/font&gt;" style="text;html=1;strokeColor=none;fillColor=none;align=center;verticalAlign=middle;whiteSpace=wrap;rounded=0;movable=1;resizable=1;rotatable=1;deletable=1;editable=1;locked=0;connectable=1;" vertex="1" parent="ng7K6PVkUtKimRaw6roi-31">
          <mxGeometry width="340" height="30" as="geometry" />
        </mxCell>
        <mxCell id="ng7K6PVkUtKimRaw6roi-36" value="" style="group;movable=1;resizable=1;rotatable=1;deletable=1;editable=1;locked=0;connectable=1;" vertex="1" connectable="0" parent="1">
          <mxGeometry x="200" y="390" width="350" height="140" as="geometry" />
        </mxCell>
        <mxCell id="ng7K6PVkUtKimRaw6roi-37" value="" style="rounded=0;whiteSpace=wrap;html=1;movable=1;resizable=1;rotatable=1;deletable=1;editable=1;locked=0;connectable=1;" vertex="1" parent="ng7K6PVkUtKimRaw6roi-36">
          <mxGeometry y="11.864406779661017" width="349.99999999999994" height="128.135593220339" as="geometry" />
        </mxCell>
        <mxCell id="ng7K6PVkUtKimRaw6roi-38" value="" style="endArrow=none;html=1;rounded=0;exitX=0;exitY=1;exitDx=0;exitDy=0;entryX=1;entryY=0;entryDx=0;entryDy=0;movable=1;resizable=1;rotatable=1;deletable=1;editable=1;locked=0;connectable=1;" edge="1" parent="ng7K6PVkUtKimRaw6roi-36" source="ng7K6PVkUtKimRaw6roi-37" target="ng7K6PVkUtKimRaw6roi-37">
          <mxGeometry width="50" height="50" relative="1" as="geometry">
            <mxPoint x="405.2631578947368" y="320.00000000000006" as="sourcePoint" />
            <mxPoint x="497.3684210526315" y="220.00000000000006" as="targetPoint" />
          </mxGeometry>
        </mxCell>
        <mxCell id="ng7K6PVkUtKimRaw6roi-39" value="" style="endArrow=none;html=1;rounded=0;exitX=0;exitY=0;exitDx=0;exitDy=0;entryX=1;entryY=1;entryDx=0;entryDy=0;movable=1;resizable=1;rotatable=1;deletable=1;editable=1;locked=0;connectable=1;" edge="1" parent="ng7K6PVkUtKimRaw6roi-36" source="ng7K6PVkUtKimRaw6roi-37" target="ng7K6PVkUtKimRaw6roi-37">
          <mxGeometry width="50" height="50" relative="1" as="geometry">
            <mxPoint x="405.2631578947368" y="320.00000000000006" as="sourcePoint" />
            <mxPoint x="497.3684210526315" y="220.00000000000006" as="targetPoint" />
          </mxGeometry>
        </mxCell>
        <mxCell id="ng7K6PVkUtKimRaw6roi-40" value="&lt;font style=&quot;font-size: 24px;&quot;&gt;Показатель&lt;/font&gt;" style="text;html=1;strokeColor=none;fillColor=none;align=center;verticalAlign=middle;whiteSpace=wrap;rounded=0;movable=1;resizable=1;rotatable=1;deletable=1;editable=1;locked=0;connectable=1;" vertex="1" parent="1">
          <mxGeometry x="200" y="378.14" width="349.99999999999994" height="11.864406779661017" as="geometry" />
        </mxCell>
        <mxCell id="ng7K6PVkUtKimRaw6roi-45" value="" style="group;movable=1;resizable=1;rotatable=1;deletable=1;editable=1;locked=0;connectable=1;" vertex="1" connectable="0" parent="1">
          <mxGeometry x="600" y="391.86" width="350" height="140" as="geometry" />
        </mxCell>
        <mxCell id="ng7K6PVkUtKimRaw6roi-46" value="" style="rounded=0;whiteSpace=wrap;html=1;movable=1;resizable=1;rotatable=1;deletable=1;editable=1;locked=0;connectable=1;" vertex="1" parent="ng7K6PVkUtKimRaw6roi-45">
          <mxGeometry y="11.864406779661017" width="349.99999999999994" height="128.135593220339" as="geometry" />
        </mxCell>
        <mxCell id="ng7K6PVkUtKimRaw6roi-47" value="" style="endArrow=none;html=1;rounded=0;exitX=0;exitY=1;exitDx=0;exitDy=0;entryX=1;entryY=0;entryDx=0;entryDy=0;movable=1;resizable=1;rotatable=1;deletable=1;editable=1;locked=0;connectable=1;" edge="1" parent="ng7K6PVkUtKimRaw6roi-45" source="ng7K6PVkUtKimRaw6roi-46" target="ng7K6PVkUtKimRaw6roi-46">
          <mxGeometry width="50" height="50" relative="1" as="geometry">
            <mxPoint x="405.2631578947368" y="320.00000000000006" as="sourcePoint" />
            <mxPoint x="497.3684210526315" y="220.00000000000006" as="targetPoint" />
          </mxGeometry>
        </mxCell>
        <mxCell id="ng7K6PVkUtKimRaw6roi-48" value="" style="endArrow=none;html=1;rounded=0;exitX=0;exitY=0;exitDx=0;exitDy=0;entryX=1;entryY=1;entryDx=0;entryDy=0;movable=1;resizable=1;rotatable=1;deletable=1;editable=1;locked=0;connectable=1;" edge="1" parent="ng7K6PVkUtKimRaw6roi-45" source="ng7K6PVkUtKimRaw6roi-46" target="ng7K6PVkUtKimRaw6roi-46">
          <mxGeometry width="50" height="50" relative="1" as="geometry">
            <mxPoint x="405.2631578947368" y="320.00000000000006" as="sourcePoint" />
            <mxPoint x="497.3684210526315" y="220.00000000000006" as="targetPoint" />
          </mxGeometry>
        </mxCell>
        <mxCell id="ng7K6PVkUtKimRaw6roi-49" value="&lt;font style=&quot;font-size: 24px;&quot;&gt;Показатель&lt;/font&gt;" style="text;html=1;strokeColor=none;fillColor=none;align=center;verticalAlign=middle;whiteSpace=wrap;rounded=0;movable=1;resizable=1;rotatable=1;deletable=1;editable=1;locked=0;connectable=1;" vertex="1" parent="1">
          <mxGeometry x="600" y="380" width="349.99999999999994" height="11.864406779661017" as="geometry" />
        </mxCell>
        <mxCell id="ng7K6PVkUtKimRaw6roi-50" value="" style="group;movable=1;resizable=1;rotatable=1;deletable=1;editable=1;locked=0;connectable=1;" vertex="1" connectable="0" parent="1">
          <mxGeometry x="1000" y="391.86" width="350" height="140" as="geometry" />
        </mxCell>
        <mxCell id="ng7K6PVkUtKimRaw6roi-51" value="" style="rounded=0;whiteSpace=wrap;html=1;movable=1;resizable=1;rotatable=1;deletable=1;editable=1;locked=0;connectable=1;" vertex="1" parent="ng7K6PVkUtKimRaw6roi-50">
          <mxGeometry y="11.864406779661017" width="349.99999999999994" height="128.135593220339" as="geometry" />
        </mxCell>
        <mxCell id="ng7K6PVkUtKimRaw6roi-52" value="" style="endArrow=none;html=1;rounded=0;exitX=0;exitY=1;exitDx=0;exitDy=0;entryX=1;entryY=0;entryDx=0;entryDy=0;movable=1;resizable=1;rotatable=1;deletable=1;editable=1;locked=0;connectable=1;" edge="1" parent="ng7K6PVkUtKimRaw6roi-50" source="ng7K6PVkUtKimRaw6roi-51" target="ng7K6PVkUtKimRaw6roi-51">
          <mxGeometry width="50" height="50" relative="1" as="geometry">
            <mxPoint x="405.2631578947368" y="320.00000000000006" as="sourcePoint" />
            <mxPoint x="497.3684210526315" y="220.00000000000006" as="targetPoint" />
          </mxGeometry>
        </mxCell>
        <mxCell id="ng7K6PVkUtKimRaw6roi-53" value="" style="endArrow=none;html=1;rounded=0;exitX=0;exitY=0;exitDx=0;exitDy=0;entryX=1;entryY=1;entryDx=0;entryDy=0;movable=1;resizable=1;rotatable=1;deletable=1;editable=1;locked=0;connectable=1;" edge="1" parent="ng7K6PVkUtKimRaw6roi-50" source="ng7K6PVkUtKimRaw6roi-51" target="ng7K6PVkUtKimRaw6roi-51">
          <mxGeometry width="50" height="50" relative="1" as="geometry">
            <mxPoint x="405.2631578947368" y="320.00000000000006" as="sourcePoint" />
            <mxPoint x="497.3684210526315" y="220.00000000000006" as="targetPoint" />
          </mxGeometry>
        </mxCell>
        <mxCell id="ng7K6PVkUtKimRaw6roi-54" value="&lt;font style=&quot;font-size: 24px;&quot;&gt;Показатель&lt;/font&gt;" style="text;html=1;strokeColor=none;fillColor=none;align=center;verticalAlign=middle;whiteSpace=wrap;rounded=0;movable=1;resizable=1;rotatable=1;deletable=1;editable=1;locked=0;connectable=1;" vertex="1" parent="1">
          <mxGeometry x="1000" y="380" width="349.99999999999994" height="11.864406779661017" as="geometry" />
        </mxCell>
        <mxCell id="ng7K6PVkUtKimRaw6roi-55" value="" style="group;movable=1;resizable=1;rotatable=1;deletable=1;editable=1;locked=0;connectable=1;" vertex="1" connectable="0" parent="1">
          <mxGeometry x="1380" y="391.86" width="290" height="140" as="geometry" />
        </mxCell>
        <mxCell id="ng7K6PVkUtKimRaw6roi-56" value="" style="rounded=0;whiteSpace=wrap;html=1;movable=1;resizable=1;rotatable=1;deletable=1;editable=1;locked=0;connectable=1;" vertex="1" parent="ng7K6PVkUtKimRaw6roi-55">
          <mxGeometry y="11.864406779661017" width="290" height="128.135593220339" as="geometry" />
        </mxCell>
        <mxCell id="ng7K6PVkUtKimRaw6roi-57" value="" style="endArrow=none;html=1;rounded=0;exitX=0;exitY=1;exitDx=0;exitDy=0;entryX=1;entryY=0;entryDx=0;entryDy=0;movable=1;resizable=1;rotatable=1;deletable=1;editable=1;locked=0;connectable=1;" edge="1" parent="ng7K6PVkUtKimRaw6roi-55" source="ng7K6PVkUtKimRaw6roi-56" target="ng7K6PVkUtKimRaw6roi-56">
          <mxGeometry width="50" height="50" relative="1" as="geometry">
            <mxPoint x="335.7894736842105" y="320.00000000000006" as="sourcePoint" />
            <mxPoint x="412.1052631578947" y="220.00000000000006" as="targetPoint" />
          </mxGeometry>
        </mxCell>
        <mxCell id="ng7K6PVkUtKimRaw6roi-58" value="" style="endArrow=none;html=1;rounded=0;exitX=0;exitY=0;exitDx=0;exitDy=0;entryX=1;entryY=1;entryDx=0;entryDy=0;movable=1;resizable=1;rotatable=1;deletable=1;editable=1;locked=0;connectable=1;" edge="1" parent="ng7K6PVkUtKimRaw6roi-55" source="ng7K6PVkUtKimRaw6roi-56" target="ng7K6PVkUtKimRaw6roi-56">
          <mxGeometry width="50" height="50" relative="1" as="geometry">
            <mxPoint x="335.7894736842105" y="320.00000000000006" as="sourcePoint" />
            <mxPoint x="412.1052631578947" y="220.00000000000006" as="targetPoint" />
          </mxGeometry>
        </mxCell>
        <mxCell id="ng7K6PVkUtKimRaw6roi-59" value="&lt;font style=&quot;font-size: 24px;&quot;&gt;Показатель&lt;/font&gt;" style="text;html=1;strokeColor=none;fillColor=none;align=center;verticalAlign=middle;whiteSpace=wrap;rounded=0;movable=1;resizable=1;rotatable=1;deletable=1;editable=1;locked=0;connectable=1;" vertex="1" parent="1">
          <mxGeometry x="1350" y="380" width="349.99999999999994" height="11.864406779661017" as="geometry" />
        </mxCell>
      </root>
    </mxGraphModel>
  </diagram>
  <diagram id="eaUAazS7ORTUnQOu_eAk" name="Wireframe-склад">
    <mxGraphModel dx="3585" dy="1865" grid="1" gridSize="10" guides="1" tooltips="1" connect="1" arrows="1" fold="1" page="1" pageScale="1" pageWidth="2336" pageHeight="1654" math="0" shadow="0">
      <root>
        <mxCell id="0" />
        <mxCell id="1" parent="0" />
        <mxCell id="9IbUwnnAOdbRRgCe6nzC-1" value="" style="rounded=0;whiteSpace=wrap;html=1;movable=1;resizable=1;rotatable=1;deletable=1;editable=1;locked=0;connectable=1;" parent="1" vertex="1">
          <mxGeometry width="1920" height="1080" as="geometry" />
        </mxCell>
        <mxCell id="9IbUwnnAOdbRRgCe6nzC-2" value="" style="rounded=0;whiteSpace=wrap;html=1;movable=1;resizable=1;rotatable=1;deletable=1;editable=1;locked=0;connectable=1;" parent="1" vertex="1">
          <mxGeometry width="1920" height="120" as="geometry" />
        </mxCell>
        <mxCell id="9IbUwnnAOdbRRgCe6nzC-3" value="" style="endArrow=none;html=1;rounded=0;movable=1;resizable=1;rotatable=1;deletable=1;editable=1;locked=0;connectable=1;" parent="1" edge="1">
          <mxGeometry width="50" height="50" relative="1" as="geometry">
            <mxPoint y="120" as="sourcePoint" />
            <mxPoint x="1920" as="targetPoint" />
          </mxGeometry>
        </mxCell>
        <mxCell id="9IbUwnnAOdbRRgCe6nzC-4" value="" style="endArrow=none;html=1;rounded=0;movable=1;resizable=1;rotatable=1;deletable=1;editable=1;locked=0;connectable=1;" parent="1" edge="1">
          <mxGeometry width="50" height="50" relative="1" as="geometry">
            <mxPoint as="sourcePoint" />
            <mxPoint x="1920" y="120" as="targetPoint" />
          </mxGeometry>
        </mxCell>
        <mxCell id="9IbUwnnAOdbRRgCe6nzC-5" value="&lt;font style=&quot;font-size: 72px;&quot;&gt;Управление складом&lt;/font&gt;" style="text;html=1;strokeColor=none;fillColor=none;align=center;verticalAlign=middle;whiteSpace=wrap;rounded=0;movable=1;resizable=1;rotatable=1;deletable=1;editable=1;locked=0;connectable=1;" parent="1" vertex="1">
          <mxGeometry x="220" y="150" width="780" height="100" as="geometry" />
        </mxCell>
        <mxCell id="9IbUwnnAOdbRRgCe6nzC-27" value="" style="group;movable=1;resizable=1;rotatable=1;deletable=1;editable=1;locked=0;connectable=1;" parent="1" vertex="1" connectable="0">
          <mxGeometry x="220" y="270" width="1140" height="700" as="geometry" />
        </mxCell>
        <mxCell id="9IbUwnnAOdbRRgCe6nzC-28" value="" style="rounded=0;whiteSpace=wrap;html=1;movable=1;resizable=1;rotatable=1;deletable=1;editable=1;locked=0;connectable=1;" parent="9IbUwnnAOdbRRgCe6nzC-27" vertex="1">
          <mxGeometry y="59.32203389830508" width="1140" height="640.6779661016949" as="geometry" />
        </mxCell>
        <mxCell id="9IbUwnnAOdbRRgCe6nzC-29" value="" style="endArrow=none;html=1;rounded=0;exitX=0;exitY=1;exitDx=0;exitDy=0;entryX=1;entryY=0;entryDx=0;entryDy=0;movable=1;resizable=1;rotatable=1;deletable=1;editable=1;locked=0;connectable=1;" parent="9IbUwnnAOdbRRgCe6nzC-27" source="9IbUwnnAOdbRRgCe6nzC-28" target="9IbUwnnAOdbRRgCe6nzC-28" edge="1">
          <mxGeometry width="50" height="50" relative="1" as="geometry">
            <mxPoint x="1319.9999999999998" y="1600" as="sourcePoint" />
            <mxPoint x="1619.9999999999998" y="1100.0000000000002" as="targetPoint" />
          </mxGeometry>
        </mxCell>
        <mxCell id="9IbUwnnAOdbRRgCe6nzC-30" value="" style="endArrow=none;html=1;rounded=0;exitX=0;exitY=0;exitDx=0;exitDy=0;entryX=1;entryY=1;entryDx=0;entryDy=0;movable=1;resizable=1;rotatable=1;deletable=1;editable=1;locked=0;connectable=1;" parent="9IbUwnnAOdbRRgCe6nzC-27" source="9IbUwnnAOdbRRgCe6nzC-28" target="9IbUwnnAOdbRRgCe6nzC-28" edge="1">
          <mxGeometry width="50" height="50" relative="1" as="geometry">
            <mxPoint x="1319.9999999999998" y="1600" as="sourcePoint" />
            <mxPoint x="1619.9999999999998" y="1100.0000000000002" as="targetPoint" />
          </mxGeometry>
        </mxCell>
        <mxCell id="9IbUwnnAOdbRRgCe6nzC-31" value="&lt;font style=&quot;font-size: 24px;&quot;&gt;Товаров на складе&lt;/font&gt;" style="text;html=1;strokeColor=none;fillColor=none;align=center;verticalAlign=middle;whiteSpace=wrap;rounded=0;movable=1;resizable=1;rotatable=1;deletable=1;editable=1;locked=0;connectable=1;" parent="9IbUwnnAOdbRRgCe6nzC-27" vertex="1">
          <mxGeometry width="1140" height="59.32203389830508" as="geometry" />
        </mxCell>
        <mxCell id="9IbUwnnAOdbRRgCe6nzC-32" value="" style="group;movable=1;resizable=1;rotatable=1;deletable=1;editable=1;locked=0;connectable=1;" parent="1" vertex="1" connectable="0">
          <mxGeometry x="1430" y="270" width="310" height="700" as="geometry" />
        </mxCell>
        <mxCell id="9IbUwnnAOdbRRgCe6nzC-33" value="" style="rounded=0;whiteSpace=wrap;html=1;movable=1;resizable=1;rotatable=1;deletable=1;editable=1;locked=0;connectable=1;" parent="9IbUwnnAOdbRRgCe6nzC-32" vertex="1">
          <mxGeometry y="59.32203389830508" width="310" height="640.6779661016948" as="geometry" />
        </mxCell>
        <mxCell id="9IbUwnnAOdbRRgCe6nzC-34" value="" style="endArrow=none;html=1;rounded=0;exitX=0;exitY=1;exitDx=0;exitDy=0;entryX=1;entryY=0;entryDx=0;entryDy=0;movable=1;resizable=1;rotatable=1;deletable=1;editable=1;locked=0;connectable=1;" parent="9IbUwnnAOdbRRgCe6nzC-32" source="9IbUwnnAOdbRRgCe6nzC-33" target="9IbUwnnAOdbRRgCe6nzC-33" edge="1">
          <mxGeometry width="50" height="50" relative="1" as="geometry">
            <mxPoint x="358.94736842105266" y="1600" as="sourcePoint" />
            <mxPoint x="440.5263157894737" y="1100.0000000000002" as="targetPoint" />
          </mxGeometry>
        </mxCell>
        <mxCell id="9IbUwnnAOdbRRgCe6nzC-35" value="" style="endArrow=none;html=1;rounded=0;exitX=0;exitY=0;exitDx=0;exitDy=0;entryX=1;entryY=1;entryDx=0;entryDy=0;movable=1;resizable=1;rotatable=1;deletable=1;editable=1;locked=0;connectable=1;" parent="9IbUwnnAOdbRRgCe6nzC-32" source="9IbUwnnAOdbRRgCe6nzC-33" target="9IbUwnnAOdbRRgCe6nzC-33" edge="1">
          <mxGeometry width="50" height="50" relative="1" as="geometry">
            <mxPoint x="358.94736842105266" y="1600" as="sourcePoint" />
            <mxPoint x="440.5263157894737" y="1100.0000000000002" as="targetPoint" />
          </mxGeometry>
        </mxCell>
        <mxCell id="9IbUwnnAOdbRRgCe6nzC-36" value="&lt;font style=&quot;font-size: 24px;&quot;&gt;Общая информация о складе&lt;/font&gt;" style="text;html=1;strokeColor=none;fillColor=none;align=center;verticalAlign=middle;whiteSpace=wrap;rounded=0;movable=1;resizable=1;rotatable=1;deletable=1;editable=1;locked=0;connectable=1;" parent="9IbUwnnAOdbRRgCe6nzC-32" vertex="1">
          <mxGeometry width="310" height="59.32203389830508" as="geometry" />
        </mxCell>
        <mxCell id="c5fwoFhGczZUceKLy5dQ-6" value="" style="group;movable=1;resizable=1;rotatable=1;deletable=1;editable=1;locked=0;connectable=1;" parent="9IbUwnnAOdbRRgCe6nzC-32" vertex="1" connectable="0">
          <mxGeometry x="20" y="500" width="270" height="70" as="geometry" />
        </mxCell>
        <mxCell id="c5fwoFhGczZUceKLy5dQ-7" value="" style="rounded=0;whiteSpace=wrap;html=1;movable=1;resizable=1;rotatable=1;deletable=1;editable=1;locked=0;connectable=1;" parent="c5fwoFhGczZUceKLy5dQ-6" vertex="1">
          <mxGeometry y="30" width="270" height="40" as="geometry" />
        </mxCell>
        <mxCell id="c5fwoFhGczZUceKLy5dQ-8" value="" style="endArrow=none;html=1;rounded=0;exitX=0;exitY=1;exitDx=0;exitDy=0;entryX=1;entryY=0;entryDx=0;entryDy=0;movable=1;resizable=1;rotatable=1;deletable=1;editable=1;locked=0;connectable=1;" parent="c5fwoFhGczZUceKLy5dQ-6" source="c5fwoFhGczZUceKLy5dQ-7" target="c5fwoFhGczZUceKLy5dQ-7" edge="1">
          <mxGeometry width="50" height="50" relative="1" as="geometry">
            <mxPoint x="312.63157894736844" y="160" as="sourcePoint" />
            <mxPoint x="383.6842105263158" y="110" as="targetPoint" />
          </mxGeometry>
        </mxCell>
        <mxCell id="c5fwoFhGczZUceKLy5dQ-9" value="" style="endArrow=none;html=1;rounded=0;exitX=0;exitY=0;exitDx=0;exitDy=0;entryX=1;entryY=1;entryDx=0;entryDy=0;movable=1;resizable=1;rotatable=1;deletable=1;editable=1;locked=0;connectable=1;" parent="c5fwoFhGczZUceKLy5dQ-6" source="c5fwoFhGczZUceKLy5dQ-7" target="c5fwoFhGczZUceKLy5dQ-7" edge="1">
          <mxGeometry width="50" height="50" relative="1" as="geometry">
            <mxPoint x="312.63157894736844" y="160" as="sourcePoint" />
            <mxPoint x="383.6842105263158" y="110" as="targetPoint" />
          </mxGeometry>
        </mxCell>
        <mxCell id="c5fwoFhGczZUceKLy5dQ-10" value="&lt;span style=&quot;font-size: 24px;&quot;&gt;Редактировать&lt;/span&gt;" style="text;html=1;strokeColor=none;fillColor=none;align=center;verticalAlign=middle;whiteSpace=wrap;rounded=0;movable=1;resizable=1;rotatable=1;deletable=1;editable=1;locked=0;connectable=1;" parent="c5fwoFhGczZUceKLy5dQ-6" vertex="1">
          <mxGeometry width="270" height="30" as="geometry" />
        </mxCell>
        <mxCell id="c5fwoFhGczZUceKLy5dQ-1" value="" style="group;movable=1;resizable=1;rotatable=1;deletable=1;editable=1;locked=0;connectable=1;" parent="1" vertex="1" connectable="0">
          <mxGeometry x="1450" y="880" width="270" height="70" as="geometry" />
        </mxCell>
        <mxCell id="c5fwoFhGczZUceKLy5dQ-2" value="" style="rounded=0;whiteSpace=wrap;html=1;movable=1;resizable=1;rotatable=1;deletable=1;editable=1;locked=0;connectable=1;" parent="c5fwoFhGczZUceKLy5dQ-1" vertex="1">
          <mxGeometry y="30" width="270" height="40" as="geometry" />
        </mxCell>
        <mxCell id="c5fwoFhGczZUceKLy5dQ-3" value="" style="endArrow=none;html=1;rounded=0;exitX=0;exitY=1;exitDx=0;exitDy=0;entryX=1;entryY=0;entryDx=0;entryDy=0;movable=1;resizable=1;rotatable=1;deletable=1;editable=1;locked=0;connectable=1;" parent="c5fwoFhGczZUceKLy5dQ-1" source="c5fwoFhGczZUceKLy5dQ-2" target="c5fwoFhGczZUceKLy5dQ-2" edge="1">
          <mxGeometry width="50" height="50" relative="1" as="geometry">
            <mxPoint x="312.63157894736844" y="160" as="sourcePoint" />
            <mxPoint x="383.6842105263158" y="110" as="targetPoint" />
          </mxGeometry>
        </mxCell>
        <mxCell id="c5fwoFhGczZUceKLy5dQ-4" value="" style="endArrow=none;html=1;rounded=0;exitX=0;exitY=0;exitDx=0;exitDy=0;entryX=1;entryY=1;entryDx=0;entryDy=0;movable=1;resizable=1;rotatable=1;deletable=1;editable=1;locked=0;connectable=1;" parent="c5fwoFhGczZUceKLy5dQ-1" source="c5fwoFhGczZUceKLy5dQ-2" target="c5fwoFhGczZUceKLy5dQ-2" edge="1">
          <mxGeometry width="50" height="50" relative="1" as="geometry">
            <mxPoint x="312.63157894736844" y="160" as="sourcePoint" />
            <mxPoint x="383.6842105263158" y="110" as="targetPoint" />
          </mxGeometry>
        </mxCell>
        <mxCell id="c5fwoFhGczZUceKLy5dQ-5" value="&lt;span style=&quot;font-size: 24px;&quot;&gt;Назад&lt;/span&gt;" style="text;html=1;strokeColor=none;fillColor=none;align=center;verticalAlign=middle;whiteSpace=wrap;rounded=0;movable=1;resizable=1;rotatable=1;deletable=1;editable=1;locked=0;connectable=1;" parent="c5fwoFhGczZUceKLy5dQ-1" vertex="1">
          <mxGeometry width="270" height="30" as="geometry" />
        </mxCell>
        <mxCell id="c5fwoFhGczZUceKLy5dQ-11" value="" style="group;movable=1;resizable=1;rotatable=1;deletable=1;editable=1;locked=0;connectable=1;" parent="1" vertex="1" connectable="0">
          <mxGeometry x="1450" y="670" width="270" height="70" as="geometry" />
        </mxCell>
        <mxCell id="c5fwoFhGczZUceKLy5dQ-12" value="" style="rounded=0;whiteSpace=wrap;html=1;movable=1;resizable=1;rotatable=1;deletable=1;editable=1;locked=0;connectable=1;" parent="c5fwoFhGczZUceKLy5dQ-11" vertex="1">
          <mxGeometry y="30" width="270" height="40" as="geometry" />
        </mxCell>
        <mxCell id="c5fwoFhGczZUceKLy5dQ-13" value="" style="endArrow=none;html=1;rounded=0;exitX=0;exitY=1;exitDx=0;exitDy=0;entryX=1;entryY=0;entryDx=0;entryDy=0;movable=1;resizable=1;rotatable=1;deletable=1;editable=1;locked=0;connectable=1;" parent="c5fwoFhGczZUceKLy5dQ-11" source="c5fwoFhGczZUceKLy5dQ-12" target="c5fwoFhGczZUceKLy5dQ-12" edge="1">
          <mxGeometry width="50" height="50" relative="1" as="geometry">
            <mxPoint x="312.63157894736844" y="160" as="sourcePoint" />
            <mxPoint x="383.6842105263158" y="110" as="targetPoint" />
          </mxGeometry>
        </mxCell>
        <mxCell id="c5fwoFhGczZUceKLy5dQ-14" value="" style="endArrow=none;html=1;rounded=0;exitX=0;exitY=0;exitDx=0;exitDy=0;entryX=1;entryY=1;entryDx=0;entryDy=0;movable=1;resizable=1;rotatable=1;deletable=1;editable=1;locked=0;connectable=1;" parent="c5fwoFhGczZUceKLy5dQ-11" source="c5fwoFhGczZUceKLy5dQ-12" target="c5fwoFhGczZUceKLy5dQ-12" edge="1">
          <mxGeometry width="50" height="50" relative="1" as="geometry">
            <mxPoint x="312.63157894736844" y="160" as="sourcePoint" />
            <mxPoint x="383.6842105263158" y="110" as="targetPoint" />
          </mxGeometry>
        </mxCell>
        <mxCell id="c5fwoFhGczZUceKLy5dQ-15" value="&lt;span style=&quot;font-size: 24px;&quot;&gt;Создать новый товар&lt;/span&gt;" style="text;html=1;strokeColor=none;fillColor=none;align=center;verticalAlign=middle;whiteSpace=wrap;rounded=0;movable=1;resizable=1;rotatable=1;deletable=1;editable=1;locked=0;connectable=1;" parent="c5fwoFhGczZUceKLy5dQ-11" vertex="1">
          <mxGeometry width="270" height="30" as="geometry" />
        </mxCell>
      </root>
    </mxGraphModel>
  </diagram>
  <diagram id="DOO-cqQRUHqOhJdBMIa_" name="Wireframe-товары">
    <mxGraphModel dx="3585" dy="1865" grid="1" gridSize="10" guides="1" tooltips="1" connect="1" arrows="1" fold="1" page="1" pageScale="1" pageWidth="2336" pageHeight="1654" math="0" shadow="0">
      <root>
        <mxCell id="0" />
        <mxCell id="1" parent="0" />
        <mxCell id="WdOgusdn60dfAOi3bPLy-1" value="" style="rounded=0;whiteSpace=wrap;html=1;movable=1;resizable=1;rotatable=1;deletable=1;editable=1;locked=0;connectable=1;" parent="1" vertex="1">
          <mxGeometry width="1920" height="1080" as="geometry" />
        </mxCell>
        <mxCell id="WdOgusdn60dfAOi3bPLy-2" value="" style="rounded=0;whiteSpace=wrap;html=1;movable=1;resizable=1;rotatable=1;deletable=1;editable=1;locked=0;connectable=1;" parent="1" vertex="1">
          <mxGeometry width="1920" height="120" as="geometry" />
        </mxCell>
        <mxCell id="WdOgusdn60dfAOi3bPLy-3" value="" style="endArrow=none;html=1;rounded=0;movable=1;resizable=1;rotatable=1;deletable=1;editable=1;locked=0;connectable=1;" parent="1" edge="1">
          <mxGeometry width="50" height="50" relative="1" as="geometry">
            <mxPoint y="120" as="sourcePoint" />
            <mxPoint x="1920" as="targetPoint" />
          </mxGeometry>
        </mxCell>
        <mxCell id="WdOgusdn60dfAOi3bPLy-4" value="" style="endArrow=none;html=1;rounded=0;movable=1;resizable=1;rotatable=1;deletable=1;editable=1;locked=0;connectable=1;" parent="1" edge="1">
          <mxGeometry width="50" height="50" relative="1" as="geometry">
            <mxPoint as="sourcePoint" />
            <mxPoint x="1920" y="120" as="targetPoint" />
          </mxGeometry>
        </mxCell>
        <mxCell id="WdOgusdn60dfAOi3bPLy-5" value="&lt;font style=&quot;font-size: 72px;&quot;&gt;Управление товарами&lt;/font&gt;" style="text;html=1;strokeColor=none;fillColor=none;align=center;verticalAlign=middle;whiteSpace=wrap;rounded=0;movable=1;resizable=1;rotatable=1;deletable=1;editable=1;locked=0;connectable=1;" parent="1" vertex="1">
          <mxGeometry x="200" y="250" width="780" height="100" as="geometry" />
        </mxCell>
        <mxCell id="WdOgusdn60dfAOi3bPLy-16" value="" style="group;movable=1;resizable=1;rotatable=1;deletable=1;editable=1;locked=0;connectable=1;" parent="1" vertex="1" connectable="0">
          <mxGeometry x="1400" y="265" width="270" height="70" as="geometry" />
        </mxCell>
        <mxCell id="WdOgusdn60dfAOi3bPLy-17" value="" style="rounded=0;whiteSpace=wrap;html=1;movable=1;resizable=1;rotatable=1;deletable=1;editable=1;locked=0;connectable=1;" parent="WdOgusdn60dfAOi3bPLy-16" vertex="1">
          <mxGeometry y="30" width="270" height="40" as="geometry" />
        </mxCell>
        <mxCell id="WdOgusdn60dfAOi3bPLy-18" value="" style="endArrow=none;html=1;rounded=0;exitX=0;exitY=1;exitDx=0;exitDy=0;entryX=1;entryY=0;entryDx=0;entryDy=0;movable=1;resizable=1;rotatable=1;deletable=1;editable=1;locked=0;connectable=1;" parent="WdOgusdn60dfAOi3bPLy-16" source="WdOgusdn60dfAOi3bPLy-17" target="WdOgusdn60dfAOi3bPLy-17" edge="1">
          <mxGeometry width="50" height="50" relative="1" as="geometry">
            <mxPoint x="312.63157894736844" y="160" as="sourcePoint" />
            <mxPoint x="383.6842105263158" y="110" as="targetPoint" />
          </mxGeometry>
        </mxCell>
        <mxCell id="WdOgusdn60dfAOi3bPLy-19" value="" style="endArrow=none;html=1;rounded=0;exitX=0;exitY=0;exitDx=0;exitDy=0;entryX=1;entryY=1;entryDx=0;entryDy=0;movable=1;resizable=1;rotatable=1;deletable=1;editable=1;locked=0;connectable=1;" parent="WdOgusdn60dfAOi3bPLy-16" source="WdOgusdn60dfAOi3bPLy-17" target="WdOgusdn60dfAOi3bPLy-17" edge="1">
          <mxGeometry width="50" height="50" relative="1" as="geometry">
            <mxPoint x="312.63157894736844" y="160" as="sourcePoint" />
            <mxPoint x="383.6842105263158" y="110" as="targetPoint" />
          </mxGeometry>
        </mxCell>
        <mxCell id="WdOgusdn60dfAOi3bPLy-20" value="&lt;font style=&quot;font-size: 24px;&quot;&gt;Создать новый товар&lt;/font&gt;" style="text;html=1;strokeColor=none;fillColor=none;align=center;verticalAlign=middle;whiteSpace=wrap;rounded=0;movable=1;resizable=1;rotatable=1;deletable=1;editable=1;locked=0;connectable=1;" parent="WdOgusdn60dfAOi3bPLy-16" vertex="1">
          <mxGeometry width="270" height="30" as="geometry" />
        </mxCell>
        <mxCell id="WdOgusdn60dfAOi3bPLy-21" value="" style="group;movable=1;resizable=1;rotatable=1;deletable=1;editable=1;locked=0;connectable=1;" parent="1" vertex="1" connectable="0">
          <mxGeometry x="1020" y="265" width="340" height="70" as="geometry" />
        </mxCell>
        <mxCell id="WdOgusdn60dfAOi3bPLy-22" value="" style="rounded=0;whiteSpace=wrap;html=1;movable=1;resizable=1;rotatable=1;deletable=1;editable=1;locked=0;connectable=1;" parent="WdOgusdn60dfAOi3bPLy-21" vertex="1">
          <mxGeometry y="30" width="340" height="40" as="geometry" />
        </mxCell>
        <mxCell id="WdOgusdn60dfAOi3bPLy-23" value="" style="endArrow=none;html=1;rounded=0;exitX=0;exitY=1;exitDx=0;exitDy=0;entryX=1;entryY=0;entryDx=0;entryDy=0;movable=1;resizable=1;rotatable=1;deletable=1;editable=1;locked=0;connectable=1;" parent="WdOgusdn60dfAOi3bPLy-21" source="WdOgusdn60dfAOi3bPLy-22" target="WdOgusdn60dfAOi3bPLy-22" edge="1">
          <mxGeometry width="50" height="50" relative="1" as="geometry">
            <mxPoint x="393.6842105263158" y="160" as="sourcePoint" />
            <mxPoint x="483.1578947368421" y="110" as="targetPoint" />
          </mxGeometry>
        </mxCell>
        <mxCell id="WdOgusdn60dfAOi3bPLy-24" value="" style="endArrow=none;html=1;rounded=0;exitX=0;exitY=0;exitDx=0;exitDy=0;entryX=1;entryY=1;entryDx=0;entryDy=0;movable=1;resizable=1;rotatable=1;deletable=1;editable=1;locked=0;connectable=1;" parent="WdOgusdn60dfAOi3bPLy-21" source="WdOgusdn60dfAOi3bPLy-22" target="WdOgusdn60dfAOi3bPLy-22" edge="1">
          <mxGeometry width="50" height="50" relative="1" as="geometry">
            <mxPoint x="393.6842105263158" y="160" as="sourcePoint" />
            <mxPoint x="483.1578947368421" y="110" as="targetPoint" />
          </mxGeometry>
        </mxCell>
        <mxCell id="WdOgusdn60dfAOi3bPLy-25" value="&lt;font style=&quot;font-size: 24px;&quot;&gt;Фильтровать по имени&lt;/font&gt;" style="text;html=1;strokeColor=none;fillColor=none;align=center;verticalAlign=middle;whiteSpace=wrap;rounded=0;movable=1;resizable=1;rotatable=1;deletable=1;editable=1;locked=0;connectable=1;" parent="WdOgusdn60dfAOi3bPLy-21" vertex="1">
          <mxGeometry width="340" height="30" as="geometry" />
        </mxCell>
        <mxCell id="WdOgusdn60dfAOi3bPLy-26" value="" style="endArrow=none;html=1;rounded=0;movable=1;resizable=1;rotatable=1;deletable=1;editable=1;locked=0;connectable=1;" parent="1" edge="1">
          <mxGeometry width="50" height="50" relative="1" as="geometry">
            <mxPoint x="200" y="350" as="sourcePoint" />
            <mxPoint x="1670" y="350" as="targetPoint" />
          </mxGeometry>
        </mxCell>
        <mxCell id="WdOgusdn60dfAOi3bPLy-27" value="" style="group;movable=1;resizable=1;rotatable=1;deletable=1;editable=1;locked=0;connectable=1;" parent="1" vertex="1" connectable="0">
          <mxGeometry x="200" y="400" width="1470" height="590" as="geometry" />
        </mxCell>
        <mxCell id="WdOgusdn60dfAOi3bPLy-28" value="" style="rounded=0;whiteSpace=wrap;html=1;movable=1;resizable=1;rotatable=1;deletable=1;editable=1;locked=0;connectable=1;" parent="WdOgusdn60dfAOi3bPLy-27" vertex="1">
          <mxGeometry y="50" width="1469.9999999999998" height="540" as="geometry" />
        </mxCell>
        <mxCell id="WdOgusdn60dfAOi3bPLy-29" value="" style="endArrow=none;html=1;rounded=0;exitX=0;exitY=1;exitDx=0;exitDy=0;entryX=1;entryY=0;entryDx=0;entryDy=0;movable=1;resizable=1;rotatable=1;deletable=1;editable=1;locked=0;connectable=1;" parent="WdOgusdn60dfAOi3bPLy-27" source="WdOgusdn60dfAOi3bPLy-28" target="WdOgusdn60dfAOi3bPLy-28" edge="1">
          <mxGeometry width="50" height="50" relative="1" as="geometry">
            <mxPoint x="1702.1052631578946" y="1348.5714285714287" as="sourcePoint" />
            <mxPoint x="2088.9473684210525" y="927.1428571428573" as="targetPoint" />
          </mxGeometry>
        </mxCell>
        <mxCell id="WdOgusdn60dfAOi3bPLy-30" value="" style="endArrow=none;html=1;rounded=0;exitX=0;exitY=0;exitDx=0;exitDy=0;entryX=1;entryY=1;entryDx=0;entryDy=0;movable=1;resizable=1;rotatable=1;deletable=1;editable=1;locked=0;connectable=1;" parent="WdOgusdn60dfAOi3bPLy-27" source="WdOgusdn60dfAOi3bPLy-28" target="WdOgusdn60dfAOi3bPLy-28" edge="1">
          <mxGeometry width="50" height="50" relative="1" as="geometry">
            <mxPoint x="1702.1052631578946" y="1348.5714285714287" as="sourcePoint" />
            <mxPoint x="2088.9473684210525" y="927.1428571428573" as="targetPoint" />
          </mxGeometry>
        </mxCell>
        <mxCell id="WdOgusdn60dfAOi3bPLy-31" value="&lt;font style=&quot;font-size: 24px;&quot;&gt;Иконки товаров&lt;/font&gt;" style="text;html=1;strokeColor=none;fillColor=none;align=center;verticalAlign=middle;whiteSpace=wrap;rounded=0;movable=1;resizable=1;rotatable=1;deletable=1;editable=1;locked=0;connectable=1;" parent="WdOgusdn60dfAOi3bPLy-27" vertex="1">
          <mxGeometry width="1469.9999999999998" height="50" as="geometry" />
        </mxCell>
        <mxCell id="L_CV44LJzSeJHQ84qBPI-1" value="&lt;font style=&quot;font-size: 24px;&quot;&gt;Товар&lt;/font&gt;" style="rounded=0;whiteSpace=wrap;html=1;" vertex="1" parent="WdOgusdn60dfAOi3bPLy-27">
          <mxGeometry x="40" y="80" width="240" height="200" as="geometry" />
        </mxCell>
        <mxCell id="L_CV44LJzSeJHQ84qBPI-2" value="&lt;font style=&quot;font-size: 24px;&quot;&gt;Товар&lt;/font&gt;" style="rounded=0;whiteSpace=wrap;html=1;" vertex="1" parent="WdOgusdn60dfAOi3bPLy-27">
          <mxGeometry x="340" y="80" width="240" height="200" as="geometry" />
        </mxCell>
        <mxCell id="L_CV44LJzSeJHQ84qBPI-3" value="&lt;font style=&quot;font-size: 24px;&quot;&gt;Товар&lt;/font&gt;" style="rounded=0;whiteSpace=wrap;html=1;" vertex="1" parent="WdOgusdn60dfAOi3bPLy-27">
          <mxGeometry x="640" y="80" width="240" height="200" as="geometry" />
        </mxCell>
        <mxCell id="L_CV44LJzSeJHQ84qBPI-4" value="&lt;font style=&quot;font-size: 24px;&quot;&gt;Товар&lt;/font&gt;" style="rounded=0;whiteSpace=wrap;html=1;" vertex="1" parent="WdOgusdn60dfAOi3bPLy-27">
          <mxGeometry x="940" y="80" width="240" height="200" as="geometry" />
        </mxCell>
      </root>
    </mxGraphModel>
  </diagram>
  <diagram id="xoSZcWeFYtqyrN94CH7H" name="Каталог-Wireframe">
    <mxGraphModel dx="4097" dy="2131" grid="1" gridSize="10" guides="1" tooltips="1" connect="1" arrows="1" fold="1" page="1" pageScale="1" pageWidth="2336" pageHeight="1654" math="0" shadow="0">
      <root>
        <mxCell id="0" />
        <mxCell id="1" parent="0" />
        <mxCell id="nyGLf-erzI61BCOSlUDC-1" value="" style="rounded=0;whiteSpace=wrap;html=1;movable=1;resizable=1;rotatable=1;deletable=1;editable=1;locked=0;connectable=1;" parent="1" vertex="1">
          <mxGeometry width="1920" height="1080" as="geometry" />
        </mxCell>
        <mxCell id="nyGLf-erzI61BCOSlUDC-2" value="" style="rounded=0;whiteSpace=wrap;html=1;movable=1;resizable=1;rotatable=1;deletable=1;editable=1;locked=0;connectable=1;" parent="1" vertex="1">
          <mxGeometry width="1920" height="120" as="geometry" />
        </mxCell>
        <mxCell id="nyGLf-erzI61BCOSlUDC-3" value="" style="endArrow=none;html=1;rounded=0;movable=1;resizable=1;rotatable=1;deletable=1;editable=1;locked=0;connectable=1;" parent="1" edge="1">
          <mxGeometry width="50" height="50" relative="1" as="geometry">
            <mxPoint y="120" as="sourcePoint" />
            <mxPoint x="1920" as="targetPoint" />
          </mxGeometry>
        </mxCell>
        <mxCell id="nyGLf-erzI61BCOSlUDC-4" value="" style="endArrow=none;html=1;rounded=0;movable=1;resizable=1;rotatable=1;deletable=1;editable=1;locked=0;connectable=1;" parent="1" edge="1">
          <mxGeometry width="50" height="50" relative="1" as="geometry">
            <mxPoint as="sourcePoint" />
            <mxPoint x="1920" y="120" as="targetPoint" />
          </mxGeometry>
        </mxCell>
        <mxCell id="nyGLf-erzI61BCOSlUDC-5" value="&lt;font style=&quot;font-size: 60px;&quot;&gt;Каталог товаров&lt;/font&gt;" style="text;html=1;strokeColor=none;fillColor=none;align=center;verticalAlign=middle;whiteSpace=wrap;rounded=0;movable=1;resizable=1;rotatable=1;deletable=1;editable=1;locked=0;connectable=1;" parent="1" vertex="1">
          <mxGeometry x="110" y="200" width="670" height="100" as="geometry" />
        </mxCell>
        <mxCell id="nyGLf-erzI61BCOSlUDC-6" value="" style="group;movable=1;resizable=1;rotatable=1;deletable=1;editable=1;locked=0;connectable=1;" parent="1" vertex="1" connectable="0">
          <mxGeometry x="220" y="310" width="1140" height="690" as="geometry" />
        </mxCell>
        <mxCell id="nyGLf-erzI61BCOSlUDC-7" value="" style="rounded=0;whiteSpace=wrap;html=1;movable=1;resizable=1;rotatable=1;deletable=1;editable=1;locked=0;connectable=1;" parent="nyGLf-erzI61BCOSlUDC-6" vertex="1">
          <mxGeometry y="55.932203389830505" width="1140" height="604.0677966101695" as="geometry" />
        </mxCell>
        <mxCell id="nyGLf-erzI61BCOSlUDC-8" value="" style="endArrow=none;html=1;rounded=0;exitX=0;exitY=1;exitDx=0;exitDy=0;entryX=1;entryY=0;entryDx=0;entryDy=0;movable=1;resizable=1;rotatable=1;deletable=1;editable=1;locked=0;connectable=1;" parent="nyGLf-erzI61BCOSlUDC-6" source="nyGLf-erzI61BCOSlUDC-7" target="nyGLf-erzI61BCOSlUDC-7" edge="1">
          <mxGeometry width="50" height="50" relative="1" as="geometry">
            <mxPoint x="1319.9999999999998" y="1508.5714285714287" as="sourcePoint" />
            <mxPoint x="1619.9999999999998" y="1037.1428571428573" as="targetPoint" />
          </mxGeometry>
        </mxCell>
        <mxCell id="nyGLf-erzI61BCOSlUDC-9" value="" style="endArrow=none;html=1;rounded=0;exitX=0;exitY=0;exitDx=0;exitDy=0;entryX=1;entryY=1;entryDx=0;entryDy=0;movable=1;resizable=1;rotatable=1;deletable=1;editable=1;locked=0;connectable=1;" parent="nyGLf-erzI61BCOSlUDC-6" source="nyGLf-erzI61BCOSlUDC-7" target="nyGLf-erzI61BCOSlUDC-7" edge="1">
          <mxGeometry width="50" height="50" relative="1" as="geometry">
            <mxPoint x="1319.9999999999998" y="1508.5714285714287" as="sourcePoint" />
            <mxPoint x="1619.9999999999998" y="1037.1428571428573" as="targetPoint" />
          </mxGeometry>
        </mxCell>
        <mxCell id="nyGLf-erzI61BCOSlUDC-10" value="&lt;font style=&quot;font-size: 24px;&quot;&gt;Каталог товаров&lt;/font&gt;" style="text;html=1;strokeColor=none;fillColor=none;align=center;verticalAlign=middle;whiteSpace=wrap;rounded=0;movable=1;resizable=1;rotatable=1;deletable=1;editable=1;locked=0;connectable=1;" parent="nyGLf-erzI61BCOSlUDC-6" vertex="1">
          <mxGeometry width="1140" height="55.932203389830505" as="geometry" />
        </mxCell>
        <mxCell id="mdPrWzCNRQ623-vyqzsX-1" value="&lt;font style=&quot;font-size: 24px;&quot;&gt;Товар&lt;/font&gt;" style="rounded=0;whiteSpace=wrap;html=1;" vertex="1" parent="nyGLf-erzI61BCOSlUDC-6">
          <mxGeometry x="30" y="80" width="240" height="200" as="geometry" />
        </mxCell>
        <mxCell id="mdPrWzCNRQ623-vyqzsX-2" value="&lt;font style=&quot;font-size: 24px;&quot;&gt;Товар&lt;/font&gt;" style="rounded=0;whiteSpace=wrap;html=1;" vertex="1" parent="nyGLf-erzI61BCOSlUDC-6">
          <mxGeometry x="300" y="80" width="240" height="200" as="geometry" />
        </mxCell>
        <mxCell id="mdPrWzCNRQ623-vyqzsX-3" value="&lt;font style=&quot;font-size: 24px;&quot;&gt;Товар&lt;/font&gt;" style="rounded=0;whiteSpace=wrap;html=1;" vertex="1" parent="nyGLf-erzI61BCOSlUDC-6">
          <mxGeometry x="570" y="80" width="240" height="200" as="geometry" />
        </mxCell>
        <mxCell id="mdPrWzCNRQ623-vyqzsX-4" value="&lt;font style=&quot;font-size: 24px;&quot;&gt;Товар&lt;/font&gt;" style="rounded=0;whiteSpace=wrap;html=1;" vertex="1" parent="nyGLf-erzI61BCOSlUDC-6">
          <mxGeometry x="850" y="80" width="240" height="200" as="geometry" />
        </mxCell>
        <mxCell id="mdPrWzCNRQ623-vyqzsX-5" value="&lt;font style=&quot;font-size: 24px;&quot;&gt;Товар&lt;/font&gt;" style="rounded=0;whiteSpace=wrap;html=1;" vertex="1" parent="nyGLf-erzI61BCOSlUDC-6">
          <mxGeometry x="30" y="310" width="240" height="200" as="geometry" />
        </mxCell>
        <mxCell id="mdPrWzCNRQ623-vyqzsX-6" value="&lt;font style=&quot;font-size: 24px;&quot;&gt;Товар&lt;/font&gt;" style="rounded=0;whiteSpace=wrap;html=1;" vertex="1" parent="nyGLf-erzI61BCOSlUDC-6">
          <mxGeometry x="300" y="310" width="240" height="200" as="geometry" />
        </mxCell>
        <mxCell id="mdPrWzCNRQ623-vyqzsX-7" value="&lt;font style=&quot;font-size: 24px;&quot;&gt;Товар&lt;/font&gt;" style="rounded=0;whiteSpace=wrap;html=1;" vertex="1" parent="nyGLf-erzI61BCOSlUDC-6">
          <mxGeometry x="570" y="310" width="240" height="200" as="geometry" />
        </mxCell>
        <mxCell id="mdPrWzCNRQ623-vyqzsX-8" value="&lt;font style=&quot;font-size: 24px;&quot;&gt;Товар&lt;/font&gt;" style="rounded=0;whiteSpace=wrap;html=1;" vertex="1" parent="nyGLf-erzI61BCOSlUDC-6">
          <mxGeometry x="850" y="310" width="240" height="200" as="geometry" />
        </mxCell>
        <mxCell id="mdPrWzCNRQ623-vyqzsX-13" value="&lt;span style=&quot;font-size: 24px;&quot;&gt;&amp;gt;&lt;/span&gt;" style="rounded=0;whiteSpace=wrap;html=1;" vertex="1" parent="nyGLf-erzI61BCOSlUDC-6">
          <mxGeometry x="690" y="630" width="60" height="60" as="geometry" />
        </mxCell>
        <mxCell id="nyGLf-erzI61BCOSlUDC-11" value="" style="group;movable=1;resizable=1;rotatable=1;deletable=1;editable=1;locked=0;connectable=1;" parent="1" vertex="1" connectable="0">
          <mxGeometry x="1430" y="310" width="310" height="660" as="geometry" />
        </mxCell>
        <mxCell id="nyGLf-erzI61BCOSlUDC-12" value="" style="rounded=0;whiteSpace=wrap;html=1;movable=1;resizable=1;rotatable=1;deletable=1;editable=1;locked=0;connectable=1;" parent="nyGLf-erzI61BCOSlUDC-11" vertex="1">
          <mxGeometry y="55.932203389830505" width="310" height="604.0677966101694" as="geometry" />
        </mxCell>
        <mxCell id="nyGLf-erzI61BCOSlUDC-13" value="" style="endArrow=none;html=1;rounded=0;exitX=0;exitY=1;exitDx=0;exitDy=0;entryX=1;entryY=0;entryDx=0;entryDy=0;movable=1;resizable=1;rotatable=1;deletable=1;editable=1;locked=0;connectable=1;" parent="nyGLf-erzI61BCOSlUDC-11" source="nyGLf-erzI61BCOSlUDC-12" target="nyGLf-erzI61BCOSlUDC-12" edge="1">
          <mxGeometry width="50" height="50" relative="1" as="geometry">
            <mxPoint x="358.94736842105266" y="1508.5714285714287" as="sourcePoint" />
            <mxPoint x="440.5263157894737" y="1037.1428571428573" as="targetPoint" />
          </mxGeometry>
        </mxCell>
        <mxCell id="nyGLf-erzI61BCOSlUDC-14" value="" style="endArrow=none;html=1;rounded=0;exitX=0;exitY=0;exitDx=0;exitDy=0;entryX=1;entryY=1;entryDx=0;entryDy=0;movable=1;resizable=1;rotatable=1;deletable=1;editable=1;locked=0;connectable=1;" parent="nyGLf-erzI61BCOSlUDC-11" source="nyGLf-erzI61BCOSlUDC-12" target="nyGLf-erzI61BCOSlUDC-12" edge="1">
          <mxGeometry width="50" height="50" relative="1" as="geometry">
            <mxPoint x="358.94736842105266" y="1508.5714285714287" as="sourcePoint" />
            <mxPoint x="440.5263157894737" y="1037.1428571428573" as="targetPoint" />
          </mxGeometry>
        </mxCell>
        <mxCell id="nyGLf-erzI61BCOSlUDC-15" value="&lt;font style=&quot;font-size: 24px;&quot;&gt;Корзина&lt;/font&gt;" style="text;html=1;strokeColor=none;fillColor=none;align=center;verticalAlign=middle;whiteSpace=wrap;rounded=0;movable=1;resizable=1;rotatable=1;deletable=1;editable=1;locked=0;connectable=1;" parent="nyGLf-erzI61BCOSlUDC-11" vertex="1">
          <mxGeometry width="310" height="55.932203389830505" as="geometry" />
        </mxCell>
        <mxCell id="nyGLf-erzI61BCOSlUDC-16" value="" style="group;movable=1;resizable=1;rotatable=1;deletable=1;editable=1;locked=0;connectable=1;" parent="nyGLf-erzI61BCOSlUDC-11" vertex="1" connectable="0">
          <mxGeometry x="20" y="480.8571428571429" width="270" height="150.85714285714286" as="geometry" />
        </mxCell>
        <mxCell id="nyGLf-erzI61BCOSlUDC-17" value="" style="rounded=0;whiteSpace=wrap;html=1;movable=1;resizable=1;rotatable=1;deletable=1;editable=1;locked=0;connectable=1;" parent="nyGLf-erzI61BCOSlUDC-16" vertex="1">
          <mxGeometry y="64.65306122448979" width="270" height="86.20408163265306" as="geometry" />
        </mxCell>
        <mxCell id="nyGLf-erzI61BCOSlUDC-18" value="" style="endArrow=none;html=1;rounded=0;exitX=0;exitY=1;exitDx=0;exitDy=0;entryX=1;entryY=0;entryDx=0;entryDy=0;movable=1;resizable=1;rotatable=1;deletable=1;editable=1;locked=0;connectable=1;" parent="nyGLf-erzI61BCOSlUDC-16" source="nyGLf-erzI61BCOSlUDC-17" target="nyGLf-erzI61BCOSlUDC-17" edge="1">
          <mxGeometry width="50" height="50" relative="1" as="geometry">
            <mxPoint x="312.63157894736844" y="344.81632653061223" as="sourcePoint" />
            <mxPoint x="383.6842105263158" y="237.0612244897959" as="targetPoint" />
          </mxGeometry>
        </mxCell>
        <mxCell id="nyGLf-erzI61BCOSlUDC-19" value="" style="endArrow=none;html=1;rounded=0;exitX=0;exitY=0;exitDx=0;exitDy=0;entryX=1;entryY=1;entryDx=0;entryDy=0;movable=1;resizable=1;rotatable=1;deletable=1;editable=1;locked=0;connectable=1;" parent="nyGLf-erzI61BCOSlUDC-16" source="nyGLf-erzI61BCOSlUDC-17" target="nyGLf-erzI61BCOSlUDC-17" edge="1">
          <mxGeometry width="50" height="50" relative="1" as="geometry">
            <mxPoint x="312.63157894736844" y="344.81632653061223" as="sourcePoint" />
            <mxPoint x="383.6842105263158" y="237.0612244897959" as="targetPoint" />
          </mxGeometry>
        </mxCell>
        <mxCell id="nyGLf-erzI61BCOSlUDC-20" value="&lt;span style=&quot;font-size: 24px;&quot;&gt;Оформить заказ&lt;/span&gt;" style="text;html=1;strokeColor=none;fillColor=none;align=center;verticalAlign=middle;whiteSpace=wrap;rounded=0;movable=1;resizable=1;rotatable=1;deletable=1;editable=1;locked=0;connectable=1;" parent="nyGLf-erzI61BCOSlUDC-16" vertex="1">
          <mxGeometry y="28.285714285714285" width="270" height="36.366" as="geometry" />
        </mxCell>
        <mxCell id="nyGLf-erzI61BCOSlUDC-21" value="" style="group;movable=1;resizable=1;rotatable=1;deletable=1;editable=1;locked=0;connectable=1;" parent="1" vertex="1" connectable="0">
          <mxGeometry x="1450" y="410" width="270" height="90" as="geometry" />
        </mxCell>
        <mxCell id="nyGLf-erzI61BCOSlUDC-22" value="" style="rounded=0;whiteSpace=wrap;html=1;movable=1;resizable=1;rotatable=1;deletable=1;editable=1;locked=0;connectable=1;" parent="nyGLf-erzI61BCOSlUDC-21" vertex="1">
          <mxGeometry y="38.57142857142857" width="270" height="51.428571428571416" as="geometry" />
        </mxCell>
        <mxCell id="nyGLf-erzI61BCOSlUDC-23" value="" style="endArrow=none;html=1;rounded=0;exitX=0;exitY=1;exitDx=0;exitDy=0;entryX=1;entryY=0;entryDx=0;entryDy=0;movable=1;resizable=1;rotatable=1;deletable=1;editable=1;locked=0;connectable=1;" parent="nyGLf-erzI61BCOSlUDC-21" source="nyGLf-erzI61BCOSlUDC-22" target="nyGLf-erzI61BCOSlUDC-22" edge="1">
          <mxGeometry width="50" height="50" relative="1" as="geometry">
            <mxPoint x="312.63157894736844" y="205.71428571428567" as="sourcePoint" />
            <mxPoint x="383.6842105263158" y="141.42857142857142" as="targetPoint" />
          </mxGeometry>
        </mxCell>
        <mxCell id="nyGLf-erzI61BCOSlUDC-24" value="" style="endArrow=none;html=1;rounded=0;exitX=0;exitY=0;exitDx=0;exitDy=0;entryX=1;entryY=1;entryDx=0;entryDy=0;movable=1;resizable=1;rotatable=1;deletable=1;editable=1;locked=0;connectable=1;" parent="nyGLf-erzI61BCOSlUDC-21" source="nyGLf-erzI61BCOSlUDC-22" target="nyGLf-erzI61BCOSlUDC-22" edge="1">
          <mxGeometry width="50" height="50" relative="1" as="geometry">
            <mxPoint x="312.63157894736844" y="205.71428571428567" as="sourcePoint" />
            <mxPoint x="383.6842105263158" y="141.42857142857142" as="targetPoint" />
          </mxGeometry>
        </mxCell>
        <mxCell id="nyGLf-erzI61BCOSlUDC-25" value="&lt;span style=&quot;font-size: 24px;&quot;&gt;Сумма товаров&lt;/span&gt;" style="text;html=1;strokeColor=none;fillColor=none;align=center;verticalAlign=middle;whiteSpace=wrap;rounded=0;movable=1;resizable=1;rotatable=1;deletable=1;editable=1;locked=0;connectable=1;" parent="nyGLf-erzI61BCOSlUDC-21" vertex="1">
          <mxGeometry y="16.875" width="270" height="21.695625" as="geometry" />
        </mxCell>
        <mxCell id="nyGLf-erzI61BCOSlUDC-26" value="" style="group;movable=1;resizable=1;rotatable=1;deletable=1;editable=1;locked=0;connectable=1;" parent="1" vertex="1" connectable="0">
          <mxGeometry x="1450" y="520" width="270" height="90" as="geometry" />
        </mxCell>
        <mxCell id="nyGLf-erzI61BCOSlUDC-27" value="" style="rounded=0;whiteSpace=wrap;html=1;movable=1;resizable=1;rotatable=1;deletable=1;editable=1;locked=0;connectable=1;" parent="nyGLf-erzI61BCOSlUDC-26" vertex="1">
          <mxGeometry y="38.57142857142857" width="270" height="51.428571428571416" as="geometry" />
        </mxCell>
        <mxCell id="nyGLf-erzI61BCOSlUDC-28" value="" style="endArrow=none;html=1;rounded=0;exitX=0;exitY=1;exitDx=0;exitDy=0;entryX=1;entryY=0;entryDx=0;entryDy=0;movable=1;resizable=1;rotatable=1;deletable=1;editable=1;locked=0;connectable=1;" parent="nyGLf-erzI61BCOSlUDC-26" source="nyGLf-erzI61BCOSlUDC-27" target="nyGLf-erzI61BCOSlUDC-27" edge="1">
          <mxGeometry width="50" height="50" relative="1" as="geometry">
            <mxPoint x="312.63157894736844" y="205.71428571428567" as="sourcePoint" />
            <mxPoint x="383.6842105263158" y="141.42857142857142" as="targetPoint" />
          </mxGeometry>
        </mxCell>
        <mxCell id="nyGLf-erzI61BCOSlUDC-29" value="" style="endArrow=none;html=1;rounded=0;exitX=0;exitY=0;exitDx=0;exitDy=0;entryX=1;entryY=1;entryDx=0;entryDy=0;movable=1;resizable=1;rotatable=1;deletable=1;editable=1;locked=0;connectable=1;" parent="nyGLf-erzI61BCOSlUDC-26" source="nyGLf-erzI61BCOSlUDC-27" target="nyGLf-erzI61BCOSlUDC-27" edge="1">
          <mxGeometry width="50" height="50" relative="1" as="geometry">
            <mxPoint x="312.63157894736844" y="205.71428571428567" as="sourcePoint" />
            <mxPoint x="383.6842105263158" y="141.42857142857142" as="targetPoint" />
          </mxGeometry>
        </mxCell>
        <mxCell id="nyGLf-erzI61BCOSlUDC-30" value="&lt;span style=&quot;font-size: 24px;&quot;&gt;Список товаров&lt;/span&gt;" style="text;html=1;strokeColor=none;fillColor=none;align=center;verticalAlign=middle;whiteSpace=wrap;rounded=0;movable=1;resizable=1;rotatable=1;deletable=1;editable=1;locked=0;connectable=1;" parent="nyGLf-erzI61BCOSlUDC-26" vertex="1">
          <mxGeometry y="16.875" width="270" height="21.695625" as="geometry" />
        </mxCell>
        <mxCell id="nyGLf-erzI61BCOSlUDC-31" value="" style="group;movable=1;resizable=1;rotatable=1;deletable=1;editable=1;locked=0;connectable=1;" parent="1" vertex="1" connectable="0">
          <mxGeometry x="720" y="190" width="350" height="90" as="geometry" />
        </mxCell>
        <mxCell id="nyGLf-erzI61BCOSlUDC-32" value="" style="rounded=0;whiteSpace=wrap;html=1;movable=1;resizable=1;rotatable=1;deletable=1;editable=1;locked=0;connectable=1;" parent="nyGLf-erzI61BCOSlUDC-31" vertex="1">
          <mxGeometry y="38.57142857142857" width="350.00000000000006" height="51.428571428571416" as="geometry" />
        </mxCell>
        <mxCell id="nyGLf-erzI61BCOSlUDC-33" value="" style="endArrow=none;html=1;rounded=0;exitX=0;exitY=1;exitDx=0;exitDy=0;entryX=1;entryY=0;entryDx=0;entryDy=0;movable=1;resizable=1;rotatable=1;deletable=1;editable=1;locked=0;connectable=1;" parent="nyGLf-erzI61BCOSlUDC-31" source="nyGLf-erzI61BCOSlUDC-32" target="nyGLf-erzI61BCOSlUDC-32" edge="1">
          <mxGeometry width="50" height="50" relative="1" as="geometry">
            <mxPoint x="405.2631578947369" y="205.71428571428567" as="sourcePoint" />
            <mxPoint x="497.36842105263156" y="141.42857142857142" as="targetPoint" />
          </mxGeometry>
        </mxCell>
        <mxCell id="nyGLf-erzI61BCOSlUDC-34" value="" style="endArrow=none;html=1;rounded=0;exitX=0;exitY=0;exitDx=0;exitDy=0;entryX=1;entryY=1;entryDx=0;entryDy=0;movable=1;resizable=1;rotatable=1;deletable=1;editable=1;locked=0;connectable=1;" parent="nyGLf-erzI61BCOSlUDC-31" source="nyGLf-erzI61BCOSlUDC-32" target="nyGLf-erzI61BCOSlUDC-32" edge="1">
          <mxGeometry width="50" height="50" relative="1" as="geometry">
            <mxPoint x="405.2631578947369" y="205.71428571428567" as="sourcePoint" />
            <mxPoint x="497.36842105263156" y="141.42857142857142" as="targetPoint" />
          </mxGeometry>
        </mxCell>
        <mxCell id="nyGLf-erzI61BCOSlUDC-35" value="&lt;span style=&quot;font-size: 24px;&quot;&gt;Искать по названию&lt;/span&gt;" style="text;html=1;strokeColor=none;fillColor=none;align=center;verticalAlign=middle;whiteSpace=wrap;rounded=0;movable=1;resizable=1;rotatable=1;deletable=1;editable=1;locked=0;connectable=1;" parent="nyGLf-erzI61BCOSlUDC-31" vertex="1">
          <mxGeometry y="16.875" width="350.00000000000006" height="21.695625" as="geometry" />
        </mxCell>
        <mxCell id="nyGLf-erzI61BCOSlUDC-36" value="" style="group;movable=1;resizable=1;rotatable=1;deletable=1;editable=1;locked=0;connectable=1;" parent="1" vertex="1" connectable="0">
          <mxGeometry x="1450" y="700" width="270" height="90" as="geometry" />
        </mxCell>
        <mxCell id="nyGLf-erzI61BCOSlUDC-37" value="" style="rounded=0;whiteSpace=wrap;html=1;movable=1;resizable=1;rotatable=1;deletable=1;editable=1;locked=0;connectable=1;" parent="nyGLf-erzI61BCOSlUDC-36" vertex="1">
          <mxGeometry y="38.57142857142857" width="270" height="51.428571428571416" as="geometry" />
        </mxCell>
        <mxCell id="nyGLf-erzI61BCOSlUDC-38" value="" style="endArrow=none;html=1;rounded=0;exitX=0;exitY=1;exitDx=0;exitDy=0;entryX=1;entryY=0;entryDx=0;entryDy=0;movable=1;resizable=1;rotatable=1;deletable=1;editable=1;locked=0;connectable=1;" parent="nyGLf-erzI61BCOSlUDC-36" source="nyGLf-erzI61BCOSlUDC-37" target="nyGLf-erzI61BCOSlUDC-37" edge="1">
          <mxGeometry width="50" height="50" relative="1" as="geometry">
            <mxPoint x="312.63157894736844" y="205.71428571428567" as="sourcePoint" />
            <mxPoint x="383.6842105263158" y="141.42857142857142" as="targetPoint" />
          </mxGeometry>
        </mxCell>
        <mxCell id="nyGLf-erzI61BCOSlUDC-39" value="" style="endArrow=none;html=1;rounded=0;exitX=0;exitY=0;exitDx=0;exitDy=0;entryX=1;entryY=1;entryDx=0;entryDy=0;movable=1;resizable=1;rotatable=1;deletable=1;editable=1;locked=0;connectable=1;" parent="nyGLf-erzI61BCOSlUDC-36" source="nyGLf-erzI61BCOSlUDC-37" target="nyGLf-erzI61BCOSlUDC-37" edge="1">
          <mxGeometry width="50" height="50" relative="1" as="geometry">
            <mxPoint x="312.63157894736844" y="205.71428571428567" as="sourcePoint" />
            <mxPoint x="383.6842105263158" y="141.42857142857142" as="targetPoint" />
          </mxGeometry>
        </mxCell>
        <mxCell id="nyGLf-erzI61BCOSlUDC-40" value="&lt;span style=&quot;font-size: 24px;&quot;&gt;Отчистить ко&lt;/span&gt;&lt;span style=&quot;font-size: 24px; background-color: transparent; color: light-dark(rgb(0, 0, 0), rgb(255, 255, 255));&quot;&gt;рзину&lt;/span&gt;" style="text;html=1;strokeColor=none;fillColor=none;align=center;verticalAlign=middle;whiteSpace=wrap;rounded=0;movable=1;resizable=1;rotatable=1;deletable=1;editable=1;locked=0;connectable=1;" parent="nyGLf-erzI61BCOSlUDC-36" vertex="1">
          <mxGeometry y="16.875" width="270" height="21.695625" as="geometry" />
        </mxCell>
        <mxCell id="nyGLf-erzI61BCOSlUDC-41" value="" style="endArrow=none;html=1;rounded=0;exitX=0;exitY=0;exitDx=0;exitDy=0;entryX=1;entryY=0;entryDx=0;entryDy=0;movable=1;resizable=1;rotatable=1;deletable=1;editable=1;locked=0;connectable=1;" parent="1" source="nyGLf-erzI61BCOSlUDC-10" target="nyGLf-erzI61BCOSlUDC-15" edge="1">
          <mxGeometry width="50" height="50" relative="1" as="geometry">
            <mxPoint x="890" y="550" as="sourcePoint" />
            <mxPoint x="940" y="500" as="targetPoint" />
          </mxGeometry>
        </mxCell>
        <mxCell id="mdPrWzCNRQ623-vyqzsX-10" value="&lt;font style=&quot;font-size: 24px;&quot;&gt;1&lt;/font&gt;" style="rounded=0;whiteSpace=wrap;html=1;" vertex="1" parent="1">
          <mxGeometry x="700" y="940" width="60" height="60" as="geometry" />
        </mxCell>
        <mxCell id="mdPrWzCNRQ623-vyqzsX-11" value="&lt;font style=&quot;font-size: 24px;&quot;&gt;2&lt;/font&gt;" style="rounded=0;whiteSpace=wrap;html=1;" vertex="1" parent="1">
          <mxGeometry x="770" y="940" width="60" height="60" as="geometry" />
        </mxCell>
        <mxCell id="mdPrWzCNRQ623-vyqzsX-12" value="&lt;span style=&quot;font-size: 24px;&quot;&gt;...&lt;/span&gt;" style="rounded=0;whiteSpace=wrap;html=1;" vertex="1" parent="1">
          <mxGeometry x="840" y="940" width="60" height="60" as="geometry" />
        </mxCell>
        <mxCell id="mdPrWzCNRQ623-vyqzsX-14" value="&lt;span style=&quot;font-size: 24px;&quot;&gt;&amp;lt;&lt;/span&gt;" style="rounded=0;whiteSpace=wrap;html=1;" vertex="1" parent="1">
          <mxGeometry x="620" y="940" width="60" height="60" as="geometry" />
        </mxCell>
      </root>
    </mxGraphModel>
  </diagram>
  <diagram id="ZOufvg_eJVdl5_owj-Ph" name="Page-4">
    <mxGraphModel dx="3653" dy="1790" grid="1" gridSize="10" guides="1" tooltips="1" connect="1" arrows="1" fold="1" page="1" pageScale="1" pageWidth="2336" pageHeight="1654" math="0" shadow="0">
      <root>
        <mxCell id="0" />
        <mxCell id="1" parent="0" />
        <mxCell id="fQvfnp8TJr_8uakmCjhF-1" value="" style="rounded=0;whiteSpace=wrap;html=1;movable=1;resizable=1;rotatable=1;deletable=1;editable=1;locked=0;connectable=1;" vertex="1" parent="1">
          <mxGeometry width="1920" height="1080" as="geometry" />
        </mxCell>
        <mxCell id="fQvfnp8TJr_8uakmCjhF-2" value="" style="rounded=0;whiteSpace=wrap;html=1;movable=1;resizable=1;rotatable=1;deletable=1;editable=1;locked=0;connectable=1;" vertex="1" parent="1">
          <mxGeometry width="1920" height="120" as="geometry" />
        </mxCell>
        <mxCell id="fQvfnp8TJr_8uakmCjhF-3" value="" style="endArrow=none;html=1;rounded=0;movable=1;resizable=1;rotatable=1;deletable=1;editable=1;locked=0;connectable=1;" edge="1" parent="1">
          <mxGeometry width="50" height="50" relative="1" as="geometry">
            <mxPoint y="120" as="sourcePoint" />
            <mxPoint x="1920" as="targetPoint" />
          </mxGeometry>
        </mxCell>
        <mxCell id="fQvfnp8TJr_8uakmCjhF-4" value="" style="endArrow=none;html=1;rounded=0;movable=1;resizable=1;rotatable=1;deletable=1;editable=1;locked=0;connectable=1;" edge="1" parent="1">
          <mxGeometry width="50" height="50" relative="1" as="geometry">
            <mxPoint as="sourcePoint" />
            <mxPoint x="1920" y="120" as="targetPoint" />
          </mxGeometry>
        </mxCell>
        <mxCell id="fQvfnp8TJr_8uakmCjhF-5" value="&lt;font style=&quot;font-size: 72px;&quot;&gt;Склады предприятия&lt;/font&gt;" style="text;html=1;strokeColor=none;fillColor=none;align=center;verticalAlign=middle;whiteSpace=wrap;rounded=0;movable=1;resizable=1;rotatable=1;deletable=1;editable=1;locked=0;connectable=1;" vertex="1" parent="1">
          <mxGeometry x="220" y="150" width="780" height="100" as="geometry" />
        </mxCell>
        <mxCell id="fQvfnp8TJr_8uakmCjhF-6" value="" style="group;movable=1;resizable=1;rotatable=1;deletable=1;editable=1;locked=0;connectable=1;" vertex="1" connectable="0" parent="1">
          <mxGeometry x="220" y="270" width="1140" height="700" as="geometry" />
        </mxCell>
        <mxCell id="fQvfnp8TJr_8uakmCjhF-7" value="" style="rounded=0;whiteSpace=wrap;html=1;movable=1;resizable=1;rotatable=1;deletable=1;editable=1;locked=0;connectable=1;" vertex="1" parent="fQvfnp8TJr_8uakmCjhF-6">
          <mxGeometry y="59.32203389830508" width="1140" height="640.6779661016949" as="geometry" />
        </mxCell>
        <mxCell id="fQvfnp8TJr_8uakmCjhF-8" value="" style="endArrow=none;html=1;rounded=0;exitX=0;exitY=1;exitDx=0;exitDy=0;entryX=1;entryY=0;entryDx=0;entryDy=0;movable=1;resizable=1;rotatable=1;deletable=1;editable=1;locked=0;connectable=1;" edge="1" parent="fQvfnp8TJr_8uakmCjhF-6" source="fQvfnp8TJr_8uakmCjhF-7" target="fQvfnp8TJr_8uakmCjhF-7">
          <mxGeometry width="50" height="50" relative="1" as="geometry">
            <mxPoint x="1319.9999999999998" y="1600" as="sourcePoint" />
            <mxPoint x="1619.9999999999998" y="1100.0000000000002" as="targetPoint" />
          </mxGeometry>
        </mxCell>
        <mxCell id="fQvfnp8TJr_8uakmCjhF-9" value="" style="endArrow=none;html=1;rounded=0;exitX=0;exitY=0;exitDx=0;exitDy=0;entryX=1;entryY=1;entryDx=0;entryDy=0;movable=1;resizable=1;rotatable=1;deletable=1;editable=1;locked=0;connectable=1;" edge="1" parent="fQvfnp8TJr_8uakmCjhF-6" source="fQvfnp8TJr_8uakmCjhF-7" target="fQvfnp8TJr_8uakmCjhF-7">
          <mxGeometry width="50" height="50" relative="1" as="geometry">
            <mxPoint x="1319.9999999999998" y="1600" as="sourcePoint" />
            <mxPoint x="1619.9999999999998" y="1100.0000000000002" as="targetPoint" />
          </mxGeometry>
        </mxCell>
        <mxCell id="fQvfnp8TJr_8uakmCjhF-10" value="&lt;font style=&quot;font-size: 24px;&quot;&gt;Список складов&lt;/font&gt;" style="text;html=1;strokeColor=none;fillColor=none;align=center;verticalAlign=middle;whiteSpace=wrap;rounded=0;movable=1;resizable=1;rotatable=1;deletable=1;editable=1;locked=0;connectable=1;" vertex="1" parent="fQvfnp8TJr_8uakmCjhF-6">
          <mxGeometry width="1140" height="59.32203389830508" as="geometry" />
        </mxCell>
        <mxCell id="fQvfnp8TJr_8uakmCjhF-11" value="" style="group;movable=1;resizable=1;rotatable=1;deletable=1;editable=1;locked=0;connectable=1;" vertex="1" connectable="0" parent="1">
          <mxGeometry x="1430" y="270" width="310" height="700" as="geometry" />
        </mxCell>
        <mxCell id="fQvfnp8TJr_8uakmCjhF-12" value="" style="rounded=0;whiteSpace=wrap;html=1;movable=1;resizable=1;rotatable=1;deletable=1;editable=1;locked=0;connectable=1;" vertex="1" parent="fQvfnp8TJr_8uakmCjhF-11">
          <mxGeometry y="59.32203389830508" width="310" height="640.6779661016948" as="geometry" />
        </mxCell>
        <mxCell id="fQvfnp8TJr_8uakmCjhF-13" value="" style="endArrow=none;html=1;rounded=0;exitX=0;exitY=1;exitDx=0;exitDy=0;entryX=1;entryY=0;entryDx=0;entryDy=0;movable=1;resizable=1;rotatable=1;deletable=1;editable=1;locked=0;connectable=1;" edge="1" parent="fQvfnp8TJr_8uakmCjhF-11" source="fQvfnp8TJr_8uakmCjhF-12" target="fQvfnp8TJr_8uakmCjhF-12">
          <mxGeometry width="50" height="50" relative="1" as="geometry">
            <mxPoint x="358.94736842105266" y="1600" as="sourcePoint" />
            <mxPoint x="440.5263157894737" y="1100.0000000000002" as="targetPoint" />
          </mxGeometry>
        </mxCell>
        <mxCell id="fQvfnp8TJr_8uakmCjhF-14" value="" style="endArrow=none;html=1;rounded=0;exitX=0;exitY=0;exitDx=0;exitDy=0;entryX=1;entryY=1;entryDx=0;entryDy=0;movable=1;resizable=1;rotatable=1;deletable=1;editable=1;locked=0;connectable=1;" edge="1" parent="fQvfnp8TJr_8uakmCjhF-11" source="fQvfnp8TJr_8uakmCjhF-12" target="fQvfnp8TJr_8uakmCjhF-12">
          <mxGeometry width="50" height="50" relative="1" as="geometry">
            <mxPoint x="358.94736842105266" y="1600" as="sourcePoint" />
            <mxPoint x="440.5263157894737" y="1100.0000000000002" as="targetPoint" />
          </mxGeometry>
        </mxCell>
        <mxCell id="fQvfnp8TJr_8uakmCjhF-15" value="&lt;font style=&quot;font-size: 24px;&quot;&gt;Общая информация о складе&lt;/font&gt;" style="text;html=1;strokeColor=none;fillColor=none;align=center;verticalAlign=middle;whiteSpace=wrap;rounded=0;movable=1;resizable=1;rotatable=1;deletable=1;editable=1;locked=0;connectable=1;" vertex="1" parent="fQvfnp8TJr_8uakmCjhF-11">
          <mxGeometry width="310" height="59.32203389830508" as="geometry" />
        </mxCell>
        <mxCell id="fQvfnp8TJr_8uakmCjhF-16" value="" style="group;movable=1;resizable=1;rotatable=1;deletable=1;editable=1;locked=0;connectable=1;" vertex="1" connectable="0" parent="fQvfnp8TJr_8uakmCjhF-11">
          <mxGeometry x="20" y="510" width="270" height="160" as="geometry" />
        </mxCell>
        <mxCell id="fQvfnp8TJr_8uakmCjhF-17" value="" style="rounded=0;whiteSpace=wrap;html=1;movable=1;resizable=1;rotatable=1;deletable=1;editable=1;locked=0;connectable=1;" vertex="1" parent="fQvfnp8TJr_8uakmCjhF-16">
          <mxGeometry y="68.57142857142857" width="270" height="91.42857142857142" as="geometry" />
        </mxCell>
        <mxCell id="fQvfnp8TJr_8uakmCjhF-18" value="" style="endArrow=none;html=1;rounded=0;exitX=0;exitY=1;exitDx=0;exitDy=0;entryX=1;entryY=0;entryDx=0;entryDy=0;movable=1;resizable=1;rotatable=1;deletable=1;editable=1;locked=0;connectable=1;" edge="1" parent="fQvfnp8TJr_8uakmCjhF-16" source="fQvfnp8TJr_8uakmCjhF-17" target="fQvfnp8TJr_8uakmCjhF-17">
          <mxGeometry width="50" height="50" relative="1" as="geometry">
            <mxPoint x="312.63157894736844" y="365.71428571428567" as="sourcePoint" />
            <mxPoint x="383.6842105263158" y="251.42857142857142" as="targetPoint" />
          </mxGeometry>
        </mxCell>
        <mxCell id="fQvfnp8TJr_8uakmCjhF-19" value="" style="endArrow=none;html=1;rounded=0;exitX=0;exitY=0;exitDx=0;exitDy=0;entryX=1;entryY=1;entryDx=0;entryDy=0;movable=1;resizable=1;rotatable=1;deletable=1;editable=1;locked=0;connectable=1;" edge="1" parent="fQvfnp8TJr_8uakmCjhF-16" source="fQvfnp8TJr_8uakmCjhF-17" target="fQvfnp8TJr_8uakmCjhF-17">
          <mxGeometry width="50" height="50" relative="1" as="geometry">
            <mxPoint x="312.63157894736844" y="365.71428571428567" as="sourcePoint" />
            <mxPoint x="383.6842105263158" y="251.42857142857142" as="targetPoint" />
          </mxGeometry>
        </mxCell>
        <mxCell id="fQvfnp8TJr_8uakmCjhF-20" value="&lt;span style=&quot;font-size: 24px;&quot;&gt;Создать новый склад&lt;/span&gt;" style="text;html=1;strokeColor=none;fillColor=none;align=center;verticalAlign=middle;whiteSpace=wrap;rounded=0;movable=1;resizable=1;rotatable=1;deletable=1;editable=1;locked=0;connectable=1;" vertex="1" parent="fQvfnp8TJr_8uakmCjhF-16">
          <mxGeometry y="30" width="270" height="38.57" as="geometry" />
        </mxCell>
      </root>
    </mxGraphModel>
  </diagram>
  <diagram id="uAU50QvTVYFElMX08Iya" name="Page-6">
    <mxGraphModel dx="7307" dy="3580" grid="1" gridSize="10" guides="1" tooltips="1" connect="1" arrows="1" fold="1" page="1" pageScale="1" pageWidth="2336" pageHeight="1654" math="0" shadow="0">
      <root>
        <mxCell id="0" />
        <mxCell id="1" parent="0" />
        <mxCell id="6OI7FCTTuW35JBTqsrCY-1" value="" style="rounded=0;whiteSpace=wrap;html=1;movable=1;resizable=1;rotatable=1;deletable=1;editable=1;locked=0;connectable=1;" vertex="1" parent="1">
          <mxGeometry width="1920" height="1080" as="geometry" />
        </mxCell>
        <mxCell id="6OI7FCTTuW35JBTqsrCY-2" value="" style="rounded=0;whiteSpace=wrap;html=1;movable=1;resizable=1;rotatable=1;deletable=1;editable=1;locked=0;connectable=1;" vertex="1" parent="1">
          <mxGeometry width="1920" height="120" as="geometry" />
        </mxCell>
        <mxCell id="6OI7FCTTuW35JBTqsrCY-3" value="" style="endArrow=none;html=1;rounded=0;movable=1;resizable=1;rotatable=1;deletable=1;editable=1;locked=0;connectable=1;" edge="1" parent="1">
          <mxGeometry width="50" height="50" relative="1" as="geometry">
            <mxPoint y="120" as="sourcePoint" />
            <mxPoint x="1920" as="targetPoint" />
          </mxGeometry>
        </mxCell>
        <mxCell id="6OI7FCTTuW35JBTqsrCY-4" value="" style="endArrow=none;html=1;rounded=0;movable=1;resizable=1;rotatable=1;deletable=1;editable=1;locked=0;connectable=1;" edge="1" parent="1">
          <mxGeometry width="50" height="50" relative="1" as="geometry">
            <mxPoint as="sourcePoint" />
            <mxPoint x="1920" y="120" as="targetPoint" />
          </mxGeometry>
        </mxCell>
        <mxCell id="6OI7FCTTuW35JBTqsrCY-5" value="&lt;font style=&quot;font-size: 72px;&quot;&gt;Аналитика продаж&lt;/font&gt;" style="text;html=1;strokeColor=none;fillColor=none;align=center;verticalAlign=middle;whiteSpace=wrap;rounded=0;movable=1;resizable=1;rotatable=1;deletable=1;editable=1;locked=0;connectable=1;" vertex="1" parent="1">
          <mxGeometry x="140" y="150" width="780" height="100" as="geometry" />
        </mxCell>
        <mxCell id="6OI7FCTTuW35JBTqsrCY-6" value="" style="group;movable=1;resizable=1;rotatable=1;deletable=1;editable=1;locked=0;connectable=1;" vertex="1" connectable="0" parent="1">
          <mxGeometry x="210" y="250" width="190" height="70" as="geometry" />
        </mxCell>
        <mxCell id="6OI7FCTTuW35JBTqsrCY-7" value="" style="rounded=0;whiteSpace=wrap;html=1;movable=1;resizable=1;rotatable=1;deletable=1;editable=1;locked=0;connectable=1;" vertex="1" parent="6OI7FCTTuW35JBTqsrCY-6">
          <mxGeometry y="30" width="190" height="40" as="geometry" />
        </mxCell>
        <mxCell id="6OI7FCTTuW35JBTqsrCY-8" value="" style="endArrow=none;html=1;rounded=0;exitX=0;exitY=1;exitDx=0;exitDy=0;entryX=1;entryY=0;entryDx=0;entryDy=0;movable=1;resizable=1;rotatable=1;deletable=1;editable=1;locked=0;connectable=1;" edge="1" parent="6OI7FCTTuW35JBTqsrCY-6" source="6OI7FCTTuW35JBTqsrCY-7" target="6OI7FCTTuW35JBTqsrCY-7">
          <mxGeometry width="50" height="50" relative="1" as="geometry">
            <mxPoint x="220" y="160" as="sourcePoint" />
            <mxPoint x="270" y="110" as="targetPoint" />
          </mxGeometry>
        </mxCell>
        <mxCell id="6OI7FCTTuW35JBTqsrCY-9" value="" style="endArrow=none;html=1;rounded=0;exitX=0;exitY=0;exitDx=0;exitDy=0;entryX=1;entryY=1;entryDx=0;entryDy=0;movable=1;resizable=1;rotatable=1;deletable=1;editable=1;locked=0;connectable=1;" edge="1" parent="6OI7FCTTuW35JBTqsrCY-6" source="6OI7FCTTuW35JBTqsrCY-7" target="6OI7FCTTuW35JBTqsrCY-7">
          <mxGeometry width="50" height="50" relative="1" as="geometry">
            <mxPoint x="220" y="160" as="sourcePoint" />
            <mxPoint x="270" y="110" as="targetPoint" />
          </mxGeometry>
        </mxCell>
        <mxCell id="6OI7FCTTuW35JBTqsrCY-10" value="&lt;font style=&quot;font-size: 24px;&quot;&gt;Дата начала&lt;/font&gt;" style="text;html=1;strokeColor=none;fillColor=none;align=center;verticalAlign=middle;whiteSpace=wrap;rounded=0;movable=1;resizable=1;rotatable=1;deletable=1;editable=1;locked=0;connectable=1;" vertex="1" parent="6OI7FCTTuW35JBTqsrCY-6">
          <mxGeometry width="190" height="30" as="geometry" />
        </mxCell>
        <mxCell id="6OI7FCTTuW35JBTqsrCY-11" value="" style="group;movable=1;resizable=1;rotatable=1;deletable=1;editable=1;locked=0;connectable=1;" vertex="1" connectable="0" parent="1">
          <mxGeometry x="440" y="250" width="190" height="70" as="geometry" />
        </mxCell>
        <mxCell id="6OI7FCTTuW35JBTqsrCY-12" value="" style="rounded=0;whiteSpace=wrap;html=1;movable=1;resizable=1;rotatable=1;deletable=1;editable=1;locked=0;connectable=1;" vertex="1" parent="6OI7FCTTuW35JBTqsrCY-11">
          <mxGeometry y="30" width="190" height="40" as="geometry" />
        </mxCell>
        <mxCell id="6OI7FCTTuW35JBTqsrCY-13" value="" style="endArrow=none;html=1;rounded=0;exitX=0;exitY=1;exitDx=0;exitDy=0;entryX=1;entryY=0;entryDx=0;entryDy=0;movable=1;resizable=1;rotatable=1;deletable=1;editable=1;locked=0;connectable=1;" edge="1" parent="6OI7FCTTuW35JBTqsrCY-11" source="6OI7FCTTuW35JBTqsrCY-12" target="6OI7FCTTuW35JBTqsrCY-12">
          <mxGeometry width="50" height="50" relative="1" as="geometry">
            <mxPoint x="220" y="160" as="sourcePoint" />
            <mxPoint x="270" y="110" as="targetPoint" />
          </mxGeometry>
        </mxCell>
        <mxCell id="6OI7FCTTuW35JBTqsrCY-14" value="" style="endArrow=none;html=1;rounded=0;exitX=0;exitY=0;exitDx=0;exitDy=0;entryX=1;entryY=1;entryDx=0;entryDy=0;movable=1;resizable=1;rotatable=1;deletable=1;editable=1;locked=0;connectable=1;" edge="1" parent="6OI7FCTTuW35JBTqsrCY-11" source="6OI7FCTTuW35JBTqsrCY-12" target="6OI7FCTTuW35JBTqsrCY-12">
          <mxGeometry width="50" height="50" relative="1" as="geometry">
            <mxPoint x="220" y="160" as="sourcePoint" />
            <mxPoint x="270" y="110" as="targetPoint" />
          </mxGeometry>
        </mxCell>
        <mxCell id="6OI7FCTTuW35JBTqsrCY-15" value="&lt;font style=&quot;font-size: 24px;&quot;&gt;Дата конца&lt;/font&gt;" style="text;html=1;strokeColor=none;fillColor=none;align=center;verticalAlign=middle;whiteSpace=wrap;rounded=0;movable=1;resizable=1;rotatable=1;deletable=1;editable=1;locked=0;connectable=1;" vertex="1" parent="6OI7FCTTuW35JBTqsrCY-11">
          <mxGeometry width="190" height="30" as="geometry" />
        </mxCell>
        <mxCell id="6OI7FCTTuW35JBTqsrCY-16" value="" style="group;movable=1;resizable=1;rotatable=1;deletable=1;editable=1;locked=0;connectable=1;" vertex="1" connectable="0" parent="1">
          <mxGeometry x="960" y="250" width="270" height="70" as="geometry" />
        </mxCell>
        <mxCell id="6OI7FCTTuW35JBTqsrCY-17" value="" style="rounded=0;whiteSpace=wrap;html=1;movable=1;resizable=1;rotatable=1;deletable=1;editable=1;locked=0;connectable=1;" vertex="1" parent="6OI7FCTTuW35JBTqsrCY-16">
          <mxGeometry y="30" width="270" height="40" as="geometry" />
        </mxCell>
        <mxCell id="6OI7FCTTuW35JBTqsrCY-18" value="" style="endArrow=none;html=1;rounded=0;exitX=0;exitY=1;exitDx=0;exitDy=0;entryX=1;entryY=0;entryDx=0;entryDy=0;movable=1;resizable=1;rotatable=1;deletable=1;editable=1;locked=0;connectable=1;" edge="1" parent="6OI7FCTTuW35JBTqsrCY-16" source="6OI7FCTTuW35JBTqsrCY-17" target="6OI7FCTTuW35JBTqsrCY-17">
          <mxGeometry width="50" height="50" relative="1" as="geometry">
            <mxPoint x="312.63157894736844" y="160" as="sourcePoint" />
            <mxPoint x="383.6842105263158" y="110" as="targetPoint" />
          </mxGeometry>
        </mxCell>
        <mxCell id="6OI7FCTTuW35JBTqsrCY-19" value="" style="endArrow=none;html=1;rounded=0;exitX=0;exitY=0;exitDx=0;exitDy=0;entryX=1;entryY=1;entryDx=0;entryDy=0;movable=1;resizable=1;rotatable=1;deletable=1;editable=1;locked=0;connectable=1;" edge="1" parent="6OI7FCTTuW35JBTqsrCY-16" source="6OI7FCTTuW35JBTqsrCY-17" target="6OI7FCTTuW35JBTqsrCY-17">
          <mxGeometry width="50" height="50" relative="1" as="geometry">
            <mxPoint x="312.63157894736844" y="160" as="sourcePoint" />
            <mxPoint x="383.6842105263158" y="110" as="targetPoint" />
          </mxGeometry>
        </mxCell>
        <mxCell id="6OI7FCTTuW35JBTqsrCY-20" value="&lt;font style=&quot;font-size: 24px;&quot;&gt;Тип продаж&lt;/font&gt;" style="text;html=1;strokeColor=none;fillColor=none;align=center;verticalAlign=middle;whiteSpace=wrap;rounded=0;movable=1;resizable=1;rotatable=1;deletable=1;editable=1;locked=0;connectable=1;" vertex="1" parent="6OI7FCTTuW35JBTqsrCY-16">
          <mxGeometry width="270" height="30" as="geometry" />
        </mxCell>
        <mxCell id="6OI7FCTTuW35JBTqsrCY-21" value="" style="group;movable=1;resizable=1;rotatable=1;deletable=1;editable=1;locked=0;connectable=1;" vertex="1" connectable="0" parent="1">
          <mxGeometry x="1250" y="250" width="340" height="70" as="geometry" />
        </mxCell>
        <mxCell id="6OI7FCTTuW35JBTqsrCY-22" value="" style="rounded=0;whiteSpace=wrap;html=1;movable=1;resizable=1;rotatable=1;deletable=1;editable=1;locked=0;connectable=1;" vertex="1" parent="6OI7FCTTuW35JBTqsrCY-21">
          <mxGeometry y="30" width="340" height="40" as="geometry" />
        </mxCell>
        <mxCell id="6OI7FCTTuW35JBTqsrCY-23" value="" style="endArrow=none;html=1;rounded=0;exitX=0;exitY=1;exitDx=0;exitDy=0;entryX=1;entryY=0;entryDx=0;entryDy=0;movable=1;resizable=1;rotatable=1;deletable=1;editable=1;locked=0;connectable=1;" edge="1" parent="6OI7FCTTuW35JBTqsrCY-21" source="6OI7FCTTuW35JBTqsrCY-22" target="6OI7FCTTuW35JBTqsrCY-22">
          <mxGeometry width="50" height="50" relative="1" as="geometry">
            <mxPoint x="393.6842105263158" y="160" as="sourcePoint" />
            <mxPoint x="483.1578947368421" y="110" as="targetPoint" />
          </mxGeometry>
        </mxCell>
        <mxCell id="6OI7FCTTuW35JBTqsrCY-24" value="" style="endArrow=none;html=1;rounded=0;exitX=0;exitY=0;exitDx=0;exitDy=0;entryX=1;entryY=1;entryDx=0;entryDy=0;movable=1;resizable=1;rotatable=1;deletable=1;editable=1;locked=0;connectable=1;" edge="1" parent="6OI7FCTTuW35JBTqsrCY-21" source="6OI7FCTTuW35JBTqsrCY-22" target="6OI7FCTTuW35JBTqsrCY-22">
          <mxGeometry width="50" height="50" relative="1" as="geometry">
            <mxPoint x="393.6842105263158" y="160" as="sourcePoint" />
            <mxPoint x="483.1578947368421" y="110" as="targetPoint" />
          </mxGeometry>
        </mxCell>
        <mxCell id="6OI7FCTTuW35JBTqsrCY-25" value="&lt;font style=&quot;font-size: 24px;&quot;&gt;Тип аналитики&lt;/font&gt;" style="text;html=1;strokeColor=none;fillColor=none;align=center;verticalAlign=middle;whiteSpace=wrap;rounded=0;movable=1;resizable=1;rotatable=1;deletable=1;editable=1;locked=0;connectable=1;" vertex="1" parent="6OI7FCTTuW35JBTqsrCY-21">
          <mxGeometry width="340" height="30" as="geometry" />
        </mxCell>
        <mxCell id="6OI7FCTTuW35JBTqsrCY-26" value="" style="endArrow=none;html=1;rounded=0;movable=1;resizable=1;rotatable=1;deletable=1;editable=1;locked=0;connectable=1;" edge="1" parent="1">
          <mxGeometry width="50" height="50" relative="1" as="geometry">
            <mxPoint x="200" y="350" as="sourcePoint" />
            <mxPoint x="1670" y="350" as="targetPoint" />
          </mxGeometry>
        </mxCell>
        <mxCell id="6OI7FCTTuW35JBTqsrCY-27" value="" style="group;movable=1;resizable=1;rotatable=1;deletable=1;editable=1;locked=0;connectable=1;" vertex="1" connectable="0" parent="1">
          <mxGeometry x="200" y="400" width="820" height="590" as="geometry" />
        </mxCell>
        <mxCell id="6OI7FCTTuW35JBTqsrCY-28" value="" style="rounded=0;whiteSpace=wrap;html=1;movable=1;resizable=1;rotatable=1;deletable=1;editable=1;locked=0;connectable=1;" vertex="1" parent="6OI7FCTTuW35JBTqsrCY-27">
          <mxGeometry y="50" width="819.9999999999999" height="540" as="geometry" />
        </mxCell>
        <mxCell id="6OI7FCTTuW35JBTqsrCY-29" value="" style="endArrow=none;html=1;rounded=0;exitX=0;exitY=1;exitDx=0;exitDy=0;entryX=1;entryY=0;entryDx=0;entryDy=0;movable=1;resizable=1;rotatable=1;deletable=1;editable=1;locked=0;connectable=1;" edge="1" parent="6OI7FCTTuW35JBTqsrCY-27" source="6OI7FCTTuW35JBTqsrCY-28" target="6OI7FCTTuW35JBTqsrCY-28">
          <mxGeometry width="50" height="50" relative="1" as="geometry">
            <mxPoint x="949.4736842105262" y="1348.5714285714287" as="sourcePoint" />
            <mxPoint x="1165.2631578947367" y="927.1428571428573" as="targetPoint" />
          </mxGeometry>
        </mxCell>
        <mxCell id="6OI7FCTTuW35JBTqsrCY-30" value="" style="endArrow=none;html=1;rounded=0;exitX=0;exitY=0;exitDx=0;exitDy=0;entryX=1;entryY=1;entryDx=0;entryDy=0;movable=1;resizable=1;rotatable=1;deletable=1;editable=1;locked=0;connectable=1;" edge="1" parent="6OI7FCTTuW35JBTqsrCY-27" source="6OI7FCTTuW35JBTqsrCY-28" target="6OI7FCTTuW35JBTqsrCY-28">
          <mxGeometry width="50" height="50" relative="1" as="geometry">
            <mxPoint x="949.4736842105262" y="1348.5714285714287" as="sourcePoint" />
            <mxPoint x="1165.2631578947367" y="927.1428571428573" as="targetPoint" />
          </mxGeometry>
        </mxCell>
        <mxCell id="6OI7FCTTuW35JBTqsrCY-31" value="&lt;font style=&quot;font-size: 24px;&quot;&gt;Список продаж&lt;/font&gt;" style="text;html=1;strokeColor=none;fillColor=none;align=center;verticalAlign=middle;whiteSpace=wrap;rounded=0;movable=1;resizable=1;rotatable=1;deletable=1;editable=1;locked=0;connectable=1;" vertex="1" parent="6OI7FCTTuW35JBTqsrCY-27">
          <mxGeometry width="819.9999999999999" height="50" as="geometry" />
        </mxCell>
        <mxCell id="6OI7FCTTuW35JBTqsrCY-32" value="" style="group;movable=1;resizable=1;rotatable=1;deletable=1;editable=1;locked=0;connectable=1;" vertex="1" connectable="0" parent="1">
          <mxGeometry x="1070" y="400" width="600" height="590" as="geometry" />
        </mxCell>
        <mxCell id="6OI7FCTTuW35JBTqsrCY-33" value="" style="rounded=0;whiteSpace=wrap;html=1;movable=1;resizable=1;rotatable=1;deletable=1;editable=1;locked=0;connectable=1;" vertex="1" parent="6OI7FCTTuW35JBTqsrCY-32">
          <mxGeometry y="50" width="600" height="540" as="geometry" />
        </mxCell>
        <mxCell id="6OI7FCTTuW35JBTqsrCY-34" value="" style="endArrow=none;html=1;rounded=0;exitX=0;exitY=1;exitDx=0;exitDy=0;entryX=1;entryY=0;entryDx=0;entryDy=0;movable=1;resizable=1;rotatable=1;deletable=1;editable=1;locked=0;connectable=1;" edge="1" parent="6OI7FCTTuW35JBTqsrCY-32" source="6OI7FCTTuW35JBTqsrCY-33" target="6OI7FCTTuW35JBTqsrCY-33">
          <mxGeometry width="50" height="50" relative="1" as="geometry">
            <mxPoint x="694.7368421052632" y="1348.5714285714287" as="sourcePoint" />
            <mxPoint x="852.6315789473683" y="927.1428571428573" as="targetPoint" />
          </mxGeometry>
        </mxCell>
        <mxCell id="6OI7FCTTuW35JBTqsrCY-35" value="" style="endArrow=none;html=1;rounded=0;exitX=0;exitY=0;exitDx=0;exitDy=0;entryX=1;entryY=1;entryDx=0;entryDy=0;movable=1;resizable=1;rotatable=1;deletable=1;editable=1;locked=0;connectable=1;" edge="1" parent="6OI7FCTTuW35JBTqsrCY-32" source="6OI7FCTTuW35JBTqsrCY-33" target="6OI7FCTTuW35JBTqsrCY-33">
          <mxGeometry width="50" height="50" relative="1" as="geometry">
            <mxPoint x="694.7368421052632" y="1348.5714285714287" as="sourcePoint" />
            <mxPoint x="852.6315789473683" y="927.1428571428573" as="targetPoint" />
          </mxGeometry>
        </mxCell>
        <mxCell id="6OI7FCTTuW35JBTqsrCY-36" value="&lt;font style=&quot;font-size: 24px;&quot;&gt;Аналитика продаж&lt;/font&gt;" style="text;html=1;strokeColor=none;fillColor=none;align=center;verticalAlign=middle;whiteSpace=wrap;rounded=0;movable=1;resizable=1;rotatable=1;deletable=1;editable=1;locked=0;connectable=1;" vertex="1" parent="6OI7FCTTuW35JBTqsrCY-32">
          <mxGeometry width="600" height="50" as="geometry" />
        </mxCell>
        <mxCell id="ucOSmzifQuPKM0wz_dcs-1" value="" style="rounded=0;whiteSpace=wrap;html=1;movable=1;resizable=1;rotatable=1;deletable=1;editable=1;locked=0;connectable=1;" vertex="1" parent="1">
          <mxGeometry x="1920" width="1920" height="1080" as="geometry" />
        </mxCell>
        <mxCell id="ucOSmzifQuPKM0wz_dcs-2" value="" style="rounded=0;whiteSpace=wrap;html=1;movable=1;resizable=1;rotatable=1;deletable=1;editable=1;locked=0;connectable=1;" vertex="1" parent="1">
          <mxGeometry x="1920" width="1920" height="120" as="geometry" />
        </mxCell>
        <mxCell id="ucOSmzifQuPKM0wz_dcs-3" value="" style="endArrow=none;html=1;rounded=0;movable=1;resizable=1;rotatable=1;deletable=1;editable=1;locked=0;connectable=1;" edge="1" parent="1">
          <mxGeometry width="50" height="50" relative="1" as="geometry">
            <mxPoint x="1920" y="120" as="sourcePoint" />
            <mxPoint x="3840" as="targetPoint" />
          </mxGeometry>
        </mxCell>
        <mxCell id="ucOSmzifQuPKM0wz_dcs-4" value="" style="endArrow=none;html=1;rounded=0;movable=1;resizable=1;rotatable=1;deletable=1;editable=1;locked=0;connectable=1;" edge="1" parent="1">
          <mxGeometry width="50" height="50" relative="1" as="geometry">
            <mxPoint x="1920" as="sourcePoint" />
            <mxPoint x="3840" y="120" as="targetPoint" />
          </mxGeometry>
        </mxCell>
        <mxCell id="ucOSmzifQuPKM0wz_dcs-5" value="&lt;font style=&quot;font-size: 72px;&quot;&gt;Управление складом&lt;/font&gt;" style="text;html=1;strokeColor=none;fillColor=none;align=center;verticalAlign=middle;whiteSpace=wrap;rounded=0;movable=1;resizable=1;rotatable=1;deletable=1;editable=1;locked=0;connectable=1;" vertex="1" parent="1">
          <mxGeometry x="2140" y="150" width="780" height="100" as="geometry" />
        </mxCell>
        <mxCell id="ucOSmzifQuPKM0wz_dcs-6" value="" style="group;movable=1;resizable=1;rotatable=1;deletable=1;editable=1;locked=0;connectable=1;" vertex="1" connectable="0" parent="1">
          <mxGeometry x="2140" y="270" width="1140" height="700" as="geometry" />
        </mxCell>
        <mxCell id="ucOSmzifQuPKM0wz_dcs-7" value="" style="rounded=0;whiteSpace=wrap;html=1;movable=1;resizable=1;rotatable=1;deletable=1;editable=1;locked=0;connectable=1;" vertex="1" parent="ucOSmzifQuPKM0wz_dcs-6">
          <mxGeometry y="59.32203389830508" width="1140" height="640.6779661016949" as="geometry" />
        </mxCell>
        <mxCell id="ucOSmzifQuPKM0wz_dcs-8" value="" style="endArrow=none;html=1;rounded=0;exitX=0;exitY=1;exitDx=0;exitDy=0;entryX=1;entryY=0;entryDx=0;entryDy=0;movable=1;resizable=1;rotatable=1;deletable=1;editable=1;locked=0;connectable=1;" edge="1" parent="ucOSmzifQuPKM0wz_dcs-6" source="ucOSmzifQuPKM0wz_dcs-7" target="ucOSmzifQuPKM0wz_dcs-7">
          <mxGeometry width="50" height="50" relative="1" as="geometry">
            <mxPoint x="1319.9999999999998" y="1600" as="sourcePoint" />
            <mxPoint x="1619.9999999999998" y="1100.0000000000002" as="targetPoint" />
          </mxGeometry>
        </mxCell>
        <mxCell id="ucOSmzifQuPKM0wz_dcs-9" value="" style="endArrow=none;html=1;rounded=0;exitX=0;exitY=0;exitDx=0;exitDy=0;entryX=1;entryY=1;entryDx=0;entryDy=0;movable=1;resizable=1;rotatable=1;deletable=1;editable=1;locked=0;connectable=1;" edge="1" parent="ucOSmzifQuPKM0wz_dcs-6" source="ucOSmzifQuPKM0wz_dcs-7" target="ucOSmzifQuPKM0wz_dcs-7">
          <mxGeometry width="50" height="50" relative="1" as="geometry">
            <mxPoint x="1319.9999999999998" y="1600" as="sourcePoint" />
            <mxPoint x="1619.9999999999998" y="1100.0000000000002" as="targetPoint" />
          </mxGeometry>
        </mxCell>
        <mxCell id="ucOSmzifQuPKM0wz_dcs-10" value="&lt;font style=&quot;font-size: 24px;&quot;&gt;Список товаров на складе&lt;/font&gt;" style="text;html=1;strokeColor=none;fillColor=none;align=center;verticalAlign=middle;whiteSpace=wrap;rounded=0;movable=1;resizable=1;rotatable=1;deletable=1;editable=1;locked=0;connectable=1;" vertex="1" parent="ucOSmzifQuPKM0wz_dcs-6">
          <mxGeometry width="1140" height="59.32203389830508" as="geometry" />
        </mxCell>
        <mxCell id="ucOSmzifQuPKM0wz_dcs-11" value="" style="group;movable=1;resizable=1;rotatable=1;deletable=1;editable=1;locked=0;connectable=1;" vertex="1" connectable="0" parent="1">
          <mxGeometry x="3350" y="270" width="310" height="700" as="geometry" />
        </mxCell>
        <mxCell id="ucOSmzifQuPKM0wz_dcs-12" value="" style="rounded=0;whiteSpace=wrap;html=1;movable=1;resizable=1;rotatable=1;deletable=1;editable=1;locked=0;connectable=1;" vertex="1" parent="ucOSmzifQuPKM0wz_dcs-11">
          <mxGeometry y="59.32203389830508" width="310" height="640.6779661016948" as="geometry" />
        </mxCell>
        <mxCell id="ucOSmzifQuPKM0wz_dcs-13" value="" style="endArrow=none;html=1;rounded=0;exitX=0;exitY=1;exitDx=0;exitDy=0;entryX=1;entryY=0;entryDx=0;entryDy=0;movable=1;resizable=1;rotatable=1;deletable=1;editable=1;locked=0;connectable=1;" edge="1" parent="ucOSmzifQuPKM0wz_dcs-11" source="ucOSmzifQuPKM0wz_dcs-12" target="ucOSmzifQuPKM0wz_dcs-12">
          <mxGeometry width="50" height="50" relative="1" as="geometry">
            <mxPoint x="358.94736842105266" y="1600" as="sourcePoint" />
            <mxPoint x="440.5263157894737" y="1100.0000000000002" as="targetPoint" />
          </mxGeometry>
        </mxCell>
        <mxCell id="ucOSmzifQuPKM0wz_dcs-14" value="" style="endArrow=none;html=1;rounded=0;exitX=0;exitY=0;exitDx=0;exitDy=0;entryX=1;entryY=1;entryDx=0;entryDy=0;movable=1;resizable=1;rotatable=1;deletable=1;editable=1;locked=0;connectable=1;" edge="1" parent="ucOSmzifQuPKM0wz_dcs-11" source="ucOSmzifQuPKM0wz_dcs-12" target="ucOSmzifQuPKM0wz_dcs-12">
          <mxGeometry width="50" height="50" relative="1" as="geometry">
            <mxPoint x="358.94736842105266" y="1600" as="sourcePoint" />
            <mxPoint x="440.5263157894737" y="1100.0000000000002" as="targetPoint" />
          </mxGeometry>
        </mxCell>
        <mxCell id="ucOSmzifQuPKM0wz_dcs-15" value="&lt;font style=&quot;font-size: 24px;&quot;&gt;Общая информация о складе&lt;/font&gt;" style="text;html=1;strokeColor=none;fillColor=none;align=center;verticalAlign=middle;whiteSpace=wrap;rounded=0;movable=1;resizable=1;rotatable=1;deletable=1;editable=1;locked=0;connectable=1;" vertex="1" parent="ucOSmzifQuPKM0wz_dcs-11">
          <mxGeometry width="310" height="59.32203389830508" as="geometry" />
        </mxCell>
        <mxCell id="ucOSmzifQuPKM0wz_dcs-16" value="" style="group;movable=1;resizable=1;rotatable=1;deletable=1;editable=1;locked=0;connectable=1;" vertex="1" connectable="0" parent="ucOSmzifQuPKM0wz_dcs-11">
          <mxGeometry x="20" y="500" width="270" height="70" as="geometry" />
        </mxCell>
        <mxCell id="ucOSmzifQuPKM0wz_dcs-17" value="" style="rounded=0;whiteSpace=wrap;html=1;movable=1;resizable=1;rotatable=1;deletable=1;editable=1;locked=0;connectable=1;" vertex="1" parent="ucOSmzifQuPKM0wz_dcs-16">
          <mxGeometry y="30" width="270" height="40" as="geometry" />
        </mxCell>
        <mxCell id="ucOSmzifQuPKM0wz_dcs-18" value="" style="endArrow=none;html=1;rounded=0;exitX=0;exitY=1;exitDx=0;exitDy=0;entryX=1;entryY=0;entryDx=0;entryDy=0;movable=1;resizable=1;rotatable=1;deletable=1;editable=1;locked=0;connectable=1;" edge="1" parent="ucOSmzifQuPKM0wz_dcs-16" source="ucOSmzifQuPKM0wz_dcs-17" target="ucOSmzifQuPKM0wz_dcs-17">
          <mxGeometry width="50" height="50" relative="1" as="geometry">
            <mxPoint x="312.63157894736844" y="160" as="sourcePoint" />
            <mxPoint x="383.6842105263158" y="110" as="targetPoint" />
          </mxGeometry>
        </mxCell>
        <mxCell id="ucOSmzifQuPKM0wz_dcs-19" value="" style="endArrow=none;html=1;rounded=0;exitX=0;exitY=0;exitDx=0;exitDy=0;entryX=1;entryY=1;entryDx=0;entryDy=0;movable=1;resizable=1;rotatable=1;deletable=1;editable=1;locked=0;connectable=1;" edge="1" parent="ucOSmzifQuPKM0wz_dcs-16" source="ucOSmzifQuPKM0wz_dcs-17" target="ucOSmzifQuPKM0wz_dcs-17">
          <mxGeometry width="50" height="50" relative="1" as="geometry">
            <mxPoint x="312.63157894736844" y="160" as="sourcePoint" />
            <mxPoint x="383.6842105263158" y="110" as="targetPoint" />
          </mxGeometry>
        </mxCell>
        <mxCell id="ucOSmzifQuPKM0wz_dcs-20" value="&lt;span style=&quot;font-size: 24px;&quot;&gt;Редактировать&lt;/span&gt;" style="text;html=1;strokeColor=none;fillColor=none;align=center;verticalAlign=middle;whiteSpace=wrap;rounded=0;movable=1;resizable=1;rotatable=1;deletable=1;editable=1;locked=0;connectable=1;" vertex="1" parent="ucOSmzifQuPKM0wz_dcs-16">
          <mxGeometry width="270" height="30" as="geometry" />
        </mxCell>
        <mxCell id="ucOSmzifQuPKM0wz_dcs-21" value="" style="group;movable=1;resizable=1;rotatable=1;deletable=1;editable=1;locked=0;connectable=1;" vertex="1" connectable="0" parent="1">
          <mxGeometry x="3370" y="880" width="270" height="70" as="geometry" />
        </mxCell>
        <mxCell id="ucOSmzifQuPKM0wz_dcs-22" value="" style="rounded=0;whiteSpace=wrap;html=1;movable=1;resizable=1;rotatable=1;deletable=1;editable=1;locked=0;connectable=1;" vertex="1" parent="ucOSmzifQuPKM0wz_dcs-21">
          <mxGeometry y="30" width="270" height="40" as="geometry" />
        </mxCell>
        <mxCell id="ucOSmzifQuPKM0wz_dcs-23" value="" style="endArrow=none;html=1;rounded=0;exitX=0;exitY=1;exitDx=0;exitDy=0;entryX=1;entryY=0;entryDx=0;entryDy=0;movable=1;resizable=1;rotatable=1;deletable=1;editable=1;locked=0;connectable=1;" edge="1" parent="ucOSmzifQuPKM0wz_dcs-21" source="ucOSmzifQuPKM0wz_dcs-22" target="ucOSmzifQuPKM0wz_dcs-22">
          <mxGeometry width="50" height="50" relative="1" as="geometry">
            <mxPoint x="312.63157894736844" y="160" as="sourcePoint" />
            <mxPoint x="383.6842105263158" y="110" as="targetPoint" />
          </mxGeometry>
        </mxCell>
        <mxCell id="ucOSmzifQuPKM0wz_dcs-24" value="" style="endArrow=none;html=1;rounded=0;exitX=0;exitY=0;exitDx=0;exitDy=0;entryX=1;entryY=1;entryDx=0;entryDy=0;movable=1;resizable=1;rotatable=1;deletable=1;editable=1;locked=0;connectable=1;" edge="1" parent="ucOSmzifQuPKM0wz_dcs-21" source="ucOSmzifQuPKM0wz_dcs-22" target="ucOSmzifQuPKM0wz_dcs-22">
          <mxGeometry width="50" height="50" relative="1" as="geometry">
            <mxPoint x="312.63157894736844" y="160" as="sourcePoint" />
            <mxPoint x="383.6842105263158" y="110" as="targetPoint" />
          </mxGeometry>
        </mxCell>
        <mxCell id="ucOSmzifQuPKM0wz_dcs-25" value="&lt;span style=&quot;font-size: 24px;&quot;&gt;Назад&lt;/span&gt;" style="text;html=1;strokeColor=none;fillColor=none;align=center;verticalAlign=middle;whiteSpace=wrap;rounded=0;movable=1;resizable=1;rotatable=1;deletable=1;editable=1;locked=0;connectable=1;" vertex="1" parent="ucOSmzifQuPKM0wz_dcs-21">
          <mxGeometry width="270" height="30" as="geometry" />
        </mxCell>
        <mxCell id="ucOSmzifQuPKM0wz_dcs-26" value="" style="group;movable=1;resizable=1;rotatable=1;deletable=1;editable=1;locked=0;connectable=1;" vertex="1" connectable="0" parent="1">
          <mxGeometry x="3370" y="670" width="270" height="70" as="geometry" />
        </mxCell>
        <mxCell id="ucOSmzifQuPKM0wz_dcs-27" value="" style="rounded=0;whiteSpace=wrap;html=1;movable=1;resizable=1;rotatable=1;deletable=1;editable=1;locked=0;connectable=1;" vertex="1" parent="ucOSmzifQuPKM0wz_dcs-26">
          <mxGeometry y="30" width="270" height="40" as="geometry" />
        </mxCell>
        <mxCell id="ucOSmzifQuPKM0wz_dcs-28" value="" style="endArrow=none;html=1;rounded=0;exitX=0;exitY=1;exitDx=0;exitDy=0;entryX=1;entryY=0;entryDx=0;entryDy=0;movable=1;resizable=1;rotatable=1;deletable=1;editable=1;locked=0;connectable=1;" edge="1" parent="ucOSmzifQuPKM0wz_dcs-26" source="ucOSmzifQuPKM0wz_dcs-27" target="ucOSmzifQuPKM0wz_dcs-27">
          <mxGeometry width="50" height="50" relative="1" as="geometry">
            <mxPoint x="312.63157894736844" y="160" as="sourcePoint" />
            <mxPoint x="383.6842105263158" y="110" as="targetPoint" />
          </mxGeometry>
        </mxCell>
        <mxCell id="ucOSmzifQuPKM0wz_dcs-29" value="" style="endArrow=none;html=1;rounded=0;exitX=0;exitY=0;exitDx=0;exitDy=0;entryX=1;entryY=1;entryDx=0;entryDy=0;movable=1;resizable=1;rotatable=1;deletable=1;editable=1;locked=0;connectable=1;" edge="1" parent="ucOSmzifQuPKM0wz_dcs-26" source="ucOSmzifQuPKM0wz_dcs-27" target="ucOSmzifQuPKM0wz_dcs-27">
          <mxGeometry width="50" height="50" relative="1" as="geometry">
            <mxPoint x="312.63157894736844" y="160" as="sourcePoint" />
            <mxPoint x="383.6842105263158" y="110" as="targetPoint" />
          </mxGeometry>
        </mxCell>
        <mxCell id="ucOSmzifQuPKM0wz_dcs-30" value="&lt;span style=&quot;font-size: 24px;&quot;&gt;Создать новый товар&lt;/span&gt;" style="text;html=1;strokeColor=none;fillColor=none;align=center;verticalAlign=middle;whiteSpace=wrap;rounded=0;movable=1;resizable=1;rotatable=1;deletable=1;editable=1;locked=0;connectable=1;" vertex="1" parent="ucOSmzifQuPKM0wz_dcs-26">
          <mxGeometry width="270" height="30" as="geometry" />
        </mxCell>
        <mxCell id="T81LQ3ky-qIP4puS8Whi-1" value="" style="rounded=0;whiteSpace=wrap;html=1;movable=1;resizable=1;rotatable=1;deletable=1;editable=1;locked=0;connectable=1;" vertex="1" parent="1">
          <mxGeometry y="1080" width="1920" height="1080" as="geometry" />
        </mxCell>
        <mxCell id="T81LQ3ky-qIP4puS8Whi-2" value="" style="rounded=0;whiteSpace=wrap;html=1;movable=1;resizable=1;rotatable=1;deletable=1;editable=1;locked=0;connectable=1;" vertex="1" parent="1">
          <mxGeometry y="1080" width="1920" height="120" as="geometry" />
        </mxCell>
        <mxCell id="T81LQ3ky-qIP4puS8Whi-3" value="" style="endArrow=none;html=1;rounded=0;movable=1;resizable=1;rotatable=1;deletable=1;editable=1;locked=0;connectable=1;" edge="1" parent="1">
          <mxGeometry width="50" height="50" relative="1" as="geometry">
            <mxPoint y="1200" as="sourcePoint" />
            <mxPoint x="1920" y="1080" as="targetPoint" />
          </mxGeometry>
        </mxCell>
        <mxCell id="T81LQ3ky-qIP4puS8Whi-4" value="" style="endArrow=none;html=1;rounded=0;movable=1;resizable=1;rotatable=1;deletable=1;editable=1;locked=0;connectable=1;" edge="1" parent="1">
          <mxGeometry width="50" height="50" relative="1" as="geometry">
            <mxPoint y="1080" as="sourcePoint" />
            <mxPoint x="1920" y="1200" as="targetPoint" />
          </mxGeometry>
        </mxCell>
        <mxCell id="T81LQ3ky-qIP4puS8Whi-5" value="&lt;font style=&quot;font-size: 72px;&quot;&gt;Управление товарами&lt;/font&gt;" style="text;html=1;strokeColor=none;fillColor=none;align=center;verticalAlign=middle;whiteSpace=wrap;rounded=0;movable=1;resizable=1;rotatable=1;deletable=1;editable=1;locked=0;connectable=1;" vertex="1" parent="1">
          <mxGeometry x="200" y="1330" width="780" height="100" as="geometry" />
        </mxCell>
        <mxCell id="T81LQ3ky-qIP4puS8Whi-6" value="" style="group;movable=1;resizable=1;rotatable=1;deletable=1;editable=1;locked=0;connectable=1;" vertex="1" connectable="0" parent="1">
          <mxGeometry x="1400" y="1345" width="270" height="70" as="geometry" />
        </mxCell>
        <mxCell id="T81LQ3ky-qIP4puS8Whi-7" value="" style="rounded=0;whiteSpace=wrap;html=1;movable=1;resizable=1;rotatable=1;deletable=1;editable=1;locked=0;connectable=1;" vertex="1" parent="T81LQ3ky-qIP4puS8Whi-6">
          <mxGeometry y="30" width="270" height="40" as="geometry" />
        </mxCell>
        <mxCell id="T81LQ3ky-qIP4puS8Whi-8" value="" style="endArrow=none;html=1;rounded=0;exitX=0;exitY=1;exitDx=0;exitDy=0;entryX=1;entryY=0;entryDx=0;entryDy=0;movable=1;resizable=1;rotatable=1;deletable=1;editable=1;locked=0;connectable=1;" edge="1" parent="T81LQ3ky-qIP4puS8Whi-6" source="T81LQ3ky-qIP4puS8Whi-7" target="T81LQ3ky-qIP4puS8Whi-7">
          <mxGeometry width="50" height="50" relative="1" as="geometry">
            <mxPoint x="312.63157894736844" y="160" as="sourcePoint" />
            <mxPoint x="383.6842105263158" y="110" as="targetPoint" />
          </mxGeometry>
        </mxCell>
        <mxCell id="T81LQ3ky-qIP4puS8Whi-9" value="" style="endArrow=none;html=1;rounded=0;exitX=0;exitY=0;exitDx=0;exitDy=0;entryX=1;entryY=1;entryDx=0;entryDy=0;movable=1;resizable=1;rotatable=1;deletable=1;editable=1;locked=0;connectable=1;" edge="1" parent="T81LQ3ky-qIP4puS8Whi-6" source="T81LQ3ky-qIP4puS8Whi-7" target="T81LQ3ky-qIP4puS8Whi-7">
          <mxGeometry width="50" height="50" relative="1" as="geometry">
            <mxPoint x="312.63157894736844" y="160" as="sourcePoint" />
            <mxPoint x="383.6842105263158" y="110" as="targetPoint" />
          </mxGeometry>
        </mxCell>
        <mxCell id="T81LQ3ky-qIP4puS8Whi-10" value="&lt;font style=&quot;font-size: 24px;&quot;&gt;Создать новый товар&lt;/font&gt;" style="text;html=1;strokeColor=none;fillColor=none;align=center;verticalAlign=middle;whiteSpace=wrap;rounded=0;movable=1;resizable=1;rotatable=1;deletable=1;editable=1;locked=0;connectable=1;" vertex="1" parent="T81LQ3ky-qIP4puS8Whi-6">
          <mxGeometry width="270" height="30" as="geometry" />
        </mxCell>
        <mxCell id="T81LQ3ky-qIP4puS8Whi-11" value="" style="group;movable=1;resizable=1;rotatable=1;deletable=1;editable=1;locked=0;connectable=1;" vertex="1" connectable="0" parent="1">
          <mxGeometry x="1020" y="1345" width="340" height="70" as="geometry" />
        </mxCell>
        <mxCell id="T81LQ3ky-qIP4puS8Whi-12" value="" style="rounded=0;whiteSpace=wrap;html=1;movable=1;resizable=1;rotatable=1;deletable=1;editable=1;locked=0;connectable=1;" vertex="1" parent="T81LQ3ky-qIP4puS8Whi-11">
          <mxGeometry y="30" width="340" height="40" as="geometry" />
        </mxCell>
        <mxCell id="T81LQ3ky-qIP4puS8Whi-13" value="" style="endArrow=none;html=1;rounded=0;exitX=0;exitY=1;exitDx=0;exitDy=0;entryX=1;entryY=0;entryDx=0;entryDy=0;movable=1;resizable=1;rotatable=1;deletable=1;editable=1;locked=0;connectable=1;" edge="1" parent="T81LQ3ky-qIP4puS8Whi-11" source="T81LQ3ky-qIP4puS8Whi-12" target="T81LQ3ky-qIP4puS8Whi-12">
          <mxGeometry width="50" height="50" relative="1" as="geometry">
            <mxPoint x="393.6842105263158" y="160" as="sourcePoint" />
            <mxPoint x="483.1578947368421" y="110" as="targetPoint" />
          </mxGeometry>
        </mxCell>
        <mxCell id="T81LQ3ky-qIP4puS8Whi-14" value="" style="endArrow=none;html=1;rounded=0;exitX=0;exitY=0;exitDx=0;exitDy=0;entryX=1;entryY=1;entryDx=0;entryDy=0;movable=1;resizable=1;rotatable=1;deletable=1;editable=1;locked=0;connectable=1;" edge="1" parent="T81LQ3ky-qIP4puS8Whi-11" source="T81LQ3ky-qIP4puS8Whi-12" target="T81LQ3ky-qIP4puS8Whi-12">
          <mxGeometry width="50" height="50" relative="1" as="geometry">
            <mxPoint x="393.6842105263158" y="160" as="sourcePoint" />
            <mxPoint x="483.1578947368421" y="110" as="targetPoint" />
          </mxGeometry>
        </mxCell>
        <mxCell id="T81LQ3ky-qIP4puS8Whi-15" value="&lt;font style=&quot;font-size: 24px;&quot;&gt;Фильтровать по имени&lt;/font&gt;" style="text;html=1;strokeColor=none;fillColor=none;align=center;verticalAlign=middle;whiteSpace=wrap;rounded=0;movable=1;resizable=1;rotatable=1;deletable=1;editable=1;locked=0;connectable=1;" vertex="1" parent="T81LQ3ky-qIP4puS8Whi-11">
          <mxGeometry width="340" height="30" as="geometry" />
        </mxCell>
        <mxCell id="T81LQ3ky-qIP4puS8Whi-16" value="" style="endArrow=none;html=1;rounded=0;movable=1;resizable=1;rotatable=1;deletable=1;editable=1;locked=0;connectable=1;" edge="1" parent="1">
          <mxGeometry width="50" height="50" relative="1" as="geometry">
            <mxPoint x="200" y="1430" as="sourcePoint" />
            <mxPoint x="1670" y="1430" as="targetPoint" />
          </mxGeometry>
        </mxCell>
        <mxCell id="T81LQ3ky-qIP4puS8Whi-17" value="" style="group;movable=1;resizable=1;rotatable=1;deletable=1;editable=1;locked=0;connectable=1;" vertex="1" connectable="0" parent="1">
          <mxGeometry x="200" y="1480" width="1470" height="590" as="geometry" />
        </mxCell>
        <mxCell id="T81LQ3ky-qIP4puS8Whi-18" value="" style="rounded=0;whiteSpace=wrap;html=1;movable=1;resizable=1;rotatable=1;deletable=1;editable=1;locked=0;connectable=1;" vertex="1" parent="T81LQ3ky-qIP4puS8Whi-17">
          <mxGeometry y="50" width="1469.9999999999998" height="540" as="geometry" />
        </mxCell>
        <mxCell id="T81LQ3ky-qIP4puS8Whi-19" value="" style="endArrow=none;html=1;rounded=0;exitX=0;exitY=1;exitDx=0;exitDy=0;entryX=1;entryY=0;entryDx=0;entryDy=0;movable=1;resizable=1;rotatable=1;deletable=1;editable=1;locked=0;connectable=1;" edge="1" parent="T81LQ3ky-qIP4puS8Whi-17" source="T81LQ3ky-qIP4puS8Whi-18" target="T81LQ3ky-qIP4puS8Whi-18">
          <mxGeometry width="50" height="50" relative="1" as="geometry">
            <mxPoint x="1702.1052631578946" y="1348.5714285714287" as="sourcePoint" />
            <mxPoint x="2088.9473684210525" y="927.1428571428573" as="targetPoint" />
          </mxGeometry>
        </mxCell>
        <mxCell id="T81LQ3ky-qIP4puS8Whi-20" value="" style="endArrow=none;html=1;rounded=0;exitX=0;exitY=0;exitDx=0;exitDy=0;entryX=1;entryY=1;entryDx=0;entryDy=0;movable=1;resizable=1;rotatable=1;deletable=1;editable=1;locked=0;connectable=1;" edge="1" parent="T81LQ3ky-qIP4puS8Whi-17" source="T81LQ3ky-qIP4puS8Whi-18" target="T81LQ3ky-qIP4puS8Whi-18">
          <mxGeometry width="50" height="50" relative="1" as="geometry">
            <mxPoint x="1702.1052631578946" y="1348.5714285714287" as="sourcePoint" />
            <mxPoint x="2088.9473684210525" y="927.1428571428573" as="targetPoint" />
          </mxGeometry>
        </mxCell>
        <mxCell id="T81LQ3ky-qIP4puS8Whi-21" value="&lt;font style=&quot;font-size: 24px;&quot;&gt;Список товаров&lt;/font&gt;" style="text;html=1;strokeColor=none;fillColor=none;align=center;verticalAlign=middle;whiteSpace=wrap;rounded=0;movable=1;resizable=1;rotatable=1;deletable=1;editable=1;locked=0;connectable=1;" vertex="1" parent="T81LQ3ky-qIP4puS8Whi-17">
          <mxGeometry width="1469.9999999999998" height="50" as="geometry" />
        </mxCell>
        <mxCell id="OZ6f0S-HTOZYZJ-PUbV7-1" value="" style="rounded=0;whiteSpace=wrap;html=1;movable=1;resizable=1;rotatable=1;deletable=1;editable=1;locked=0;connectable=1;" vertex="1" parent="1">
          <mxGeometry x="1920" y="1080" width="1920" height="1080" as="geometry" />
        </mxCell>
        <mxCell id="OZ6f0S-HTOZYZJ-PUbV7-2" value="" style="rounded=0;whiteSpace=wrap;html=1;movable=1;resizable=1;rotatable=1;deletable=1;editable=1;locked=0;connectable=1;" vertex="1" parent="1">
          <mxGeometry x="1920" y="1080" width="1920" height="120" as="geometry" />
        </mxCell>
        <mxCell id="OZ6f0S-HTOZYZJ-PUbV7-3" value="" style="endArrow=none;html=1;rounded=0;movable=1;resizable=1;rotatable=1;deletable=1;editable=1;locked=0;connectable=1;" edge="1" parent="1">
          <mxGeometry width="50" height="50" relative="1" as="geometry">
            <mxPoint x="1920" y="1200" as="sourcePoint" />
            <mxPoint x="3840" y="1080" as="targetPoint" />
          </mxGeometry>
        </mxCell>
        <mxCell id="OZ6f0S-HTOZYZJ-PUbV7-4" value="" style="endArrow=none;html=1;rounded=0;movable=1;resizable=1;rotatable=1;deletable=1;editable=1;locked=0;connectable=1;" edge="1" parent="1">
          <mxGeometry width="50" height="50" relative="1" as="geometry">
            <mxPoint x="1920" y="1080" as="sourcePoint" />
            <mxPoint x="3840" y="1200" as="targetPoint" />
          </mxGeometry>
        </mxCell>
        <mxCell id="OZ6f0S-HTOZYZJ-PUbV7-5" value="&lt;font style=&quot;font-size: 60px;&quot;&gt;Каталог товаров&lt;/font&gt;" style="text;html=1;strokeColor=none;fillColor=none;align=center;verticalAlign=middle;whiteSpace=wrap;rounded=0;movable=1;resizable=1;rotatable=1;deletable=1;editable=1;locked=0;connectable=1;" vertex="1" parent="1">
          <mxGeometry x="2030" y="1280" width="670" height="100" as="geometry" />
        </mxCell>
        <mxCell id="OZ6f0S-HTOZYZJ-PUbV7-6" value="" style="group;movable=1;resizable=1;rotatable=1;deletable=1;editable=1;locked=0;connectable=1;" vertex="1" connectable="0" parent="1">
          <mxGeometry x="2140" y="1390" width="1140" height="660" as="geometry" />
        </mxCell>
        <mxCell id="OZ6f0S-HTOZYZJ-PUbV7-7" value="" style="rounded=0;whiteSpace=wrap;html=1;movable=1;resizable=1;rotatable=1;deletable=1;editable=1;locked=0;connectable=1;" vertex="1" parent="OZ6f0S-HTOZYZJ-PUbV7-6">
          <mxGeometry y="55.932203389830505" width="1140" height="604.0677966101695" as="geometry" />
        </mxCell>
        <mxCell id="OZ6f0S-HTOZYZJ-PUbV7-8" value="" style="endArrow=none;html=1;rounded=0;exitX=0;exitY=1;exitDx=0;exitDy=0;entryX=1;entryY=0;entryDx=0;entryDy=0;movable=1;resizable=1;rotatable=1;deletable=1;editable=1;locked=0;connectable=1;" edge="1" parent="OZ6f0S-HTOZYZJ-PUbV7-6" source="OZ6f0S-HTOZYZJ-PUbV7-7" target="OZ6f0S-HTOZYZJ-PUbV7-7">
          <mxGeometry width="50" height="50" relative="1" as="geometry">
            <mxPoint x="1319.9999999999998" y="1508.5714285714287" as="sourcePoint" />
            <mxPoint x="1619.9999999999998" y="1037.1428571428573" as="targetPoint" />
          </mxGeometry>
        </mxCell>
        <mxCell id="OZ6f0S-HTOZYZJ-PUbV7-9" value="" style="endArrow=none;html=1;rounded=0;exitX=0;exitY=0;exitDx=0;exitDy=0;entryX=1;entryY=1;entryDx=0;entryDy=0;movable=1;resizable=1;rotatable=1;deletable=1;editable=1;locked=0;connectable=1;" edge="1" parent="OZ6f0S-HTOZYZJ-PUbV7-6" source="OZ6f0S-HTOZYZJ-PUbV7-7" target="OZ6f0S-HTOZYZJ-PUbV7-7">
          <mxGeometry width="50" height="50" relative="1" as="geometry">
            <mxPoint x="1319.9999999999998" y="1508.5714285714287" as="sourcePoint" />
            <mxPoint x="1619.9999999999998" y="1037.1428571428573" as="targetPoint" />
          </mxGeometry>
        </mxCell>
        <mxCell id="OZ6f0S-HTOZYZJ-PUbV7-10" value="&lt;font style=&quot;font-size: 24px;&quot;&gt;Каталог товаров&lt;/font&gt;" style="text;html=1;strokeColor=none;fillColor=none;align=center;verticalAlign=middle;whiteSpace=wrap;rounded=0;movable=1;resizable=1;rotatable=1;deletable=1;editable=1;locked=0;connectable=1;" vertex="1" parent="OZ6f0S-HTOZYZJ-PUbV7-6">
          <mxGeometry width="1140" height="55.932203389830505" as="geometry" />
        </mxCell>
        <mxCell id="OZ6f0S-HTOZYZJ-PUbV7-11" value="" style="group;movable=1;resizable=1;rotatable=1;deletable=1;editable=1;locked=0;connectable=1;" vertex="1" connectable="0" parent="1">
          <mxGeometry x="3350" y="1390" width="310" height="660" as="geometry" />
        </mxCell>
        <mxCell id="OZ6f0S-HTOZYZJ-PUbV7-12" value="" style="rounded=0;whiteSpace=wrap;html=1;movable=1;resizable=1;rotatable=1;deletable=1;editable=1;locked=0;connectable=1;" vertex="1" parent="OZ6f0S-HTOZYZJ-PUbV7-11">
          <mxGeometry y="55.932203389830505" width="310" height="604.0677966101694" as="geometry" />
        </mxCell>
        <mxCell id="OZ6f0S-HTOZYZJ-PUbV7-13" value="" style="endArrow=none;html=1;rounded=0;exitX=0;exitY=1;exitDx=0;exitDy=0;entryX=1;entryY=0;entryDx=0;entryDy=0;movable=1;resizable=1;rotatable=1;deletable=1;editable=1;locked=0;connectable=1;" edge="1" parent="OZ6f0S-HTOZYZJ-PUbV7-11" source="OZ6f0S-HTOZYZJ-PUbV7-12" target="OZ6f0S-HTOZYZJ-PUbV7-12">
          <mxGeometry width="50" height="50" relative="1" as="geometry">
            <mxPoint x="358.94736842105266" y="1508.5714285714287" as="sourcePoint" />
            <mxPoint x="440.5263157894737" y="1037.1428571428573" as="targetPoint" />
          </mxGeometry>
        </mxCell>
        <mxCell id="OZ6f0S-HTOZYZJ-PUbV7-14" value="" style="endArrow=none;html=1;rounded=0;exitX=0;exitY=0;exitDx=0;exitDy=0;entryX=1;entryY=1;entryDx=0;entryDy=0;movable=1;resizable=1;rotatable=1;deletable=1;editable=1;locked=0;connectable=1;" edge="1" parent="OZ6f0S-HTOZYZJ-PUbV7-11" source="OZ6f0S-HTOZYZJ-PUbV7-12" target="OZ6f0S-HTOZYZJ-PUbV7-12">
          <mxGeometry width="50" height="50" relative="1" as="geometry">
            <mxPoint x="358.94736842105266" y="1508.5714285714287" as="sourcePoint" />
            <mxPoint x="440.5263157894737" y="1037.1428571428573" as="targetPoint" />
          </mxGeometry>
        </mxCell>
        <mxCell id="OZ6f0S-HTOZYZJ-PUbV7-15" value="&lt;font style=&quot;font-size: 24px;&quot;&gt;Карзина&lt;/font&gt;" style="text;html=1;strokeColor=none;fillColor=none;align=center;verticalAlign=middle;whiteSpace=wrap;rounded=0;movable=1;resizable=1;rotatable=1;deletable=1;editable=1;locked=0;connectable=1;" vertex="1" parent="OZ6f0S-HTOZYZJ-PUbV7-11">
          <mxGeometry width="310" height="55.932203389830505" as="geometry" />
        </mxCell>
        <mxCell id="OZ6f0S-HTOZYZJ-PUbV7-16" value="" style="group;movable=1;resizable=1;rotatable=1;deletable=1;editable=1;locked=0;connectable=1;" vertex="1" connectable="0" parent="OZ6f0S-HTOZYZJ-PUbV7-11">
          <mxGeometry x="20" y="480.8571428571429" width="270" height="150.85714285714286" as="geometry" />
        </mxCell>
        <mxCell id="OZ6f0S-HTOZYZJ-PUbV7-17" value="" style="rounded=0;whiteSpace=wrap;html=1;movable=1;resizable=1;rotatable=1;deletable=1;editable=1;locked=0;connectable=1;" vertex="1" parent="OZ6f0S-HTOZYZJ-PUbV7-16">
          <mxGeometry y="64.65306122448979" width="270" height="86.20408163265306" as="geometry" />
        </mxCell>
        <mxCell id="OZ6f0S-HTOZYZJ-PUbV7-18" value="" style="endArrow=none;html=1;rounded=0;exitX=0;exitY=1;exitDx=0;exitDy=0;entryX=1;entryY=0;entryDx=0;entryDy=0;movable=1;resizable=1;rotatable=1;deletable=1;editable=1;locked=0;connectable=1;" edge="1" parent="OZ6f0S-HTOZYZJ-PUbV7-16" source="OZ6f0S-HTOZYZJ-PUbV7-17" target="OZ6f0S-HTOZYZJ-PUbV7-17">
          <mxGeometry width="50" height="50" relative="1" as="geometry">
            <mxPoint x="312.63157894736844" y="344.81632653061223" as="sourcePoint" />
            <mxPoint x="383.6842105263158" y="237.0612244897959" as="targetPoint" />
          </mxGeometry>
        </mxCell>
        <mxCell id="OZ6f0S-HTOZYZJ-PUbV7-19" value="" style="endArrow=none;html=1;rounded=0;exitX=0;exitY=0;exitDx=0;exitDy=0;entryX=1;entryY=1;entryDx=0;entryDy=0;movable=1;resizable=1;rotatable=1;deletable=1;editable=1;locked=0;connectable=1;" edge="1" parent="OZ6f0S-HTOZYZJ-PUbV7-16" source="OZ6f0S-HTOZYZJ-PUbV7-17" target="OZ6f0S-HTOZYZJ-PUbV7-17">
          <mxGeometry width="50" height="50" relative="1" as="geometry">
            <mxPoint x="312.63157894736844" y="344.81632653061223" as="sourcePoint" />
            <mxPoint x="383.6842105263158" y="237.0612244897959" as="targetPoint" />
          </mxGeometry>
        </mxCell>
        <mxCell id="OZ6f0S-HTOZYZJ-PUbV7-20" value="&lt;span style=&quot;font-size: 24px;&quot;&gt;Оформить заказ&lt;/span&gt;" style="text;html=1;strokeColor=none;fillColor=none;align=center;verticalAlign=middle;whiteSpace=wrap;rounded=0;movable=1;resizable=1;rotatable=1;deletable=1;editable=1;locked=0;connectable=1;" vertex="1" parent="OZ6f0S-HTOZYZJ-PUbV7-16">
          <mxGeometry y="28.285714285714285" width="270" height="36.366" as="geometry" />
        </mxCell>
        <mxCell id="OZ6f0S-HTOZYZJ-PUbV7-21" value="" style="group;movable=1;resizable=1;rotatable=1;deletable=1;editable=1;locked=0;connectable=1;" vertex="1" connectable="0" parent="1">
          <mxGeometry x="3370" y="1490" width="270" height="90" as="geometry" />
        </mxCell>
        <mxCell id="OZ6f0S-HTOZYZJ-PUbV7-22" value="" style="rounded=0;whiteSpace=wrap;html=1;movable=1;resizable=1;rotatable=1;deletable=1;editable=1;locked=0;connectable=1;" vertex="1" parent="OZ6f0S-HTOZYZJ-PUbV7-21">
          <mxGeometry y="38.57142857142857" width="270" height="51.428571428571416" as="geometry" />
        </mxCell>
        <mxCell id="OZ6f0S-HTOZYZJ-PUbV7-23" value="" style="endArrow=none;html=1;rounded=0;exitX=0;exitY=1;exitDx=0;exitDy=0;entryX=1;entryY=0;entryDx=0;entryDy=0;movable=1;resizable=1;rotatable=1;deletable=1;editable=1;locked=0;connectable=1;" edge="1" parent="OZ6f0S-HTOZYZJ-PUbV7-21" source="OZ6f0S-HTOZYZJ-PUbV7-22" target="OZ6f0S-HTOZYZJ-PUbV7-22">
          <mxGeometry width="50" height="50" relative="1" as="geometry">
            <mxPoint x="312.63157894736844" y="205.71428571428567" as="sourcePoint" />
            <mxPoint x="383.6842105263158" y="141.42857142857142" as="targetPoint" />
          </mxGeometry>
        </mxCell>
        <mxCell id="OZ6f0S-HTOZYZJ-PUbV7-24" value="" style="endArrow=none;html=1;rounded=0;exitX=0;exitY=0;exitDx=0;exitDy=0;entryX=1;entryY=1;entryDx=0;entryDy=0;movable=1;resizable=1;rotatable=1;deletable=1;editable=1;locked=0;connectable=1;" edge="1" parent="OZ6f0S-HTOZYZJ-PUbV7-21" source="OZ6f0S-HTOZYZJ-PUbV7-22" target="OZ6f0S-HTOZYZJ-PUbV7-22">
          <mxGeometry width="50" height="50" relative="1" as="geometry">
            <mxPoint x="312.63157894736844" y="205.71428571428567" as="sourcePoint" />
            <mxPoint x="383.6842105263158" y="141.42857142857142" as="targetPoint" />
          </mxGeometry>
        </mxCell>
        <mxCell id="OZ6f0S-HTOZYZJ-PUbV7-25" value="&lt;span style=&quot;font-size: 24px;&quot;&gt;Сумма товаров&lt;/span&gt;" style="text;html=1;strokeColor=none;fillColor=none;align=center;verticalAlign=middle;whiteSpace=wrap;rounded=0;movable=1;resizable=1;rotatable=1;deletable=1;editable=1;locked=0;connectable=1;" vertex="1" parent="OZ6f0S-HTOZYZJ-PUbV7-21">
          <mxGeometry y="16.875" width="270" height="21.695625" as="geometry" />
        </mxCell>
        <mxCell id="OZ6f0S-HTOZYZJ-PUbV7-26" value="" style="group;movable=1;resizable=1;rotatable=1;deletable=1;editable=1;locked=0;connectable=1;" vertex="1" connectable="0" parent="1">
          <mxGeometry x="3370" y="1600" width="270" height="90" as="geometry" />
        </mxCell>
        <mxCell id="OZ6f0S-HTOZYZJ-PUbV7-27" value="" style="rounded=0;whiteSpace=wrap;html=1;movable=1;resizable=1;rotatable=1;deletable=1;editable=1;locked=0;connectable=1;" vertex="1" parent="OZ6f0S-HTOZYZJ-PUbV7-26">
          <mxGeometry y="38.57142857142857" width="270" height="51.428571428571416" as="geometry" />
        </mxCell>
        <mxCell id="OZ6f0S-HTOZYZJ-PUbV7-28" value="" style="endArrow=none;html=1;rounded=0;exitX=0;exitY=1;exitDx=0;exitDy=0;entryX=1;entryY=0;entryDx=0;entryDy=0;movable=1;resizable=1;rotatable=1;deletable=1;editable=1;locked=0;connectable=1;" edge="1" parent="OZ6f0S-HTOZYZJ-PUbV7-26" source="OZ6f0S-HTOZYZJ-PUbV7-27" target="OZ6f0S-HTOZYZJ-PUbV7-27">
          <mxGeometry width="50" height="50" relative="1" as="geometry">
            <mxPoint x="312.63157894736844" y="205.71428571428567" as="sourcePoint" />
            <mxPoint x="383.6842105263158" y="141.42857142857142" as="targetPoint" />
          </mxGeometry>
        </mxCell>
        <mxCell id="OZ6f0S-HTOZYZJ-PUbV7-29" value="" style="endArrow=none;html=1;rounded=0;exitX=0;exitY=0;exitDx=0;exitDy=0;entryX=1;entryY=1;entryDx=0;entryDy=0;movable=1;resizable=1;rotatable=1;deletable=1;editable=1;locked=0;connectable=1;" edge="1" parent="OZ6f0S-HTOZYZJ-PUbV7-26" source="OZ6f0S-HTOZYZJ-PUbV7-27" target="OZ6f0S-HTOZYZJ-PUbV7-27">
          <mxGeometry width="50" height="50" relative="1" as="geometry">
            <mxPoint x="312.63157894736844" y="205.71428571428567" as="sourcePoint" />
            <mxPoint x="383.6842105263158" y="141.42857142857142" as="targetPoint" />
          </mxGeometry>
        </mxCell>
        <mxCell id="OZ6f0S-HTOZYZJ-PUbV7-30" value="&lt;span style=&quot;font-size: 24px;&quot;&gt;Список товаров&lt;/span&gt;" style="text;html=1;strokeColor=none;fillColor=none;align=center;verticalAlign=middle;whiteSpace=wrap;rounded=0;movable=1;resizable=1;rotatable=1;deletable=1;editable=1;locked=0;connectable=1;" vertex="1" parent="OZ6f0S-HTOZYZJ-PUbV7-26">
          <mxGeometry y="16.875" width="270" height="21.695625" as="geometry" />
        </mxCell>
        <mxCell id="OZ6f0S-HTOZYZJ-PUbV7-31" value="" style="group;movable=1;resizable=1;rotatable=1;deletable=1;editable=1;locked=0;connectable=1;" vertex="1" connectable="0" parent="1">
          <mxGeometry x="2640" y="1270" width="350" height="90" as="geometry" />
        </mxCell>
        <mxCell id="OZ6f0S-HTOZYZJ-PUbV7-32" value="" style="rounded=0;whiteSpace=wrap;html=1;movable=1;resizable=1;rotatable=1;deletable=1;editable=1;locked=0;connectable=1;" vertex="1" parent="OZ6f0S-HTOZYZJ-PUbV7-31">
          <mxGeometry y="38.57142857142857" width="350.00000000000006" height="51.428571428571416" as="geometry" />
        </mxCell>
        <mxCell id="OZ6f0S-HTOZYZJ-PUbV7-33" value="" style="endArrow=none;html=1;rounded=0;exitX=0;exitY=1;exitDx=0;exitDy=0;entryX=1;entryY=0;entryDx=0;entryDy=0;movable=1;resizable=1;rotatable=1;deletable=1;editable=1;locked=0;connectable=1;" edge="1" parent="OZ6f0S-HTOZYZJ-PUbV7-31" source="OZ6f0S-HTOZYZJ-PUbV7-32" target="OZ6f0S-HTOZYZJ-PUbV7-32">
          <mxGeometry width="50" height="50" relative="1" as="geometry">
            <mxPoint x="405.2631578947369" y="205.71428571428567" as="sourcePoint" />
            <mxPoint x="497.36842105263156" y="141.42857142857142" as="targetPoint" />
          </mxGeometry>
        </mxCell>
        <mxCell id="OZ6f0S-HTOZYZJ-PUbV7-34" value="" style="endArrow=none;html=1;rounded=0;exitX=0;exitY=0;exitDx=0;exitDy=0;entryX=1;entryY=1;entryDx=0;entryDy=0;movable=1;resizable=1;rotatable=1;deletable=1;editable=1;locked=0;connectable=1;" edge="1" parent="OZ6f0S-HTOZYZJ-PUbV7-31" source="OZ6f0S-HTOZYZJ-PUbV7-32" target="OZ6f0S-HTOZYZJ-PUbV7-32">
          <mxGeometry width="50" height="50" relative="1" as="geometry">
            <mxPoint x="405.2631578947369" y="205.71428571428567" as="sourcePoint" />
            <mxPoint x="497.36842105263156" y="141.42857142857142" as="targetPoint" />
          </mxGeometry>
        </mxCell>
        <mxCell id="OZ6f0S-HTOZYZJ-PUbV7-35" value="&lt;span style=&quot;font-size: 24px;&quot;&gt;Искать по названию&lt;/span&gt;" style="text;html=1;strokeColor=none;fillColor=none;align=center;verticalAlign=middle;whiteSpace=wrap;rounded=0;movable=1;resizable=1;rotatable=1;deletable=1;editable=1;locked=0;connectable=1;" vertex="1" parent="OZ6f0S-HTOZYZJ-PUbV7-31">
          <mxGeometry y="16.875" width="350.00000000000006" height="21.695625" as="geometry" />
        </mxCell>
        <mxCell id="OZ6f0S-HTOZYZJ-PUbV7-36" value="" style="group;movable=1;resizable=1;rotatable=1;deletable=1;editable=1;locked=0;connectable=1;" vertex="1" connectable="0" parent="1">
          <mxGeometry x="3010" y="1270" width="270" height="90" as="geometry" />
        </mxCell>
        <mxCell id="OZ6f0S-HTOZYZJ-PUbV7-37" value="" style="rounded=0;whiteSpace=wrap;html=1;movable=1;resizable=1;rotatable=1;deletable=1;editable=1;locked=0;connectable=1;" vertex="1" parent="OZ6f0S-HTOZYZJ-PUbV7-36">
          <mxGeometry y="38.57142857142857" width="270" height="51.428571428571416" as="geometry" />
        </mxCell>
        <mxCell id="OZ6f0S-HTOZYZJ-PUbV7-38" value="" style="endArrow=none;html=1;rounded=0;exitX=0;exitY=1;exitDx=0;exitDy=0;entryX=1;entryY=0;entryDx=0;entryDy=0;movable=1;resizable=1;rotatable=1;deletable=1;editable=1;locked=0;connectable=1;" edge="1" parent="OZ6f0S-HTOZYZJ-PUbV7-36" source="OZ6f0S-HTOZYZJ-PUbV7-37" target="OZ6f0S-HTOZYZJ-PUbV7-37">
          <mxGeometry width="50" height="50" relative="1" as="geometry">
            <mxPoint x="312.63157894736844" y="205.71428571428567" as="sourcePoint" />
            <mxPoint x="383.6842105263158" y="141.42857142857142" as="targetPoint" />
          </mxGeometry>
        </mxCell>
        <mxCell id="OZ6f0S-HTOZYZJ-PUbV7-39" value="" style="endArrow=none;html=1;rounded=0;exitX=0;exitY=0;exitDx=0;exitDy=0;entryX=1;entryY=1;entryDx=0;entryDy=0;movable=1;resizable=1;rotatable=1;deletable=1;editable=1;locked=0;connectable=1;" edge="1" parent="OZ6f0S-HTOZYZJ-PUbV7-36" source="OZ6f0S-HTOZYZJ-PUbV7-37" target="OZ6f0S-HTOZYZJ-PUbV7-37">
          <mxGeometry width="50" height="50" relative="1" as="geometry">
            <mxPoint x="312.63157894736844" y="205.71428571428567" as="sourcePoint" />
            <mxPoint x="383.6842105263158" y="141.42857142857142" as="targetPoint" />
          </mxGeometry>
        </mxCell>
        <mxCell id="OZ6f0S-HTOZYZJ-PUbV7-40" value="&lt;span style=&quot;font-size: 24px;&quot;&gt;Отчистить карзину&lt;/span&gt;" style="text;html=1;strokeColor=none;fillColor=none;align=center;verticalAlign=middle;whiteSpace=wrap;rounded=0;movable=1;resizable=1;rotatable=1;deletable=1;editable=1;locked=0;connectable=1;" vertex="1" parent="OZ6f0S-HTOZYZJ-PUbV7-36">
          <mxGeometry y="16.875" width="270" height="21.695625" as="geometry" />
        </mxCell>
        <mxCell id="OZ6f0S-HTOZYZJ-PUbV7-41" value="" style="endArrow=none;html=1;rounded=0;exitX=0;exitY=0;exitDx=0;exitDy=0;entryX=1;entryY=0;entryDx=0;entryDy=0;movable=1;resizable=1;rotatable=1;deletable=1;editable=1;locked=0;connectable=1;" edge="1" parent="1" source="OZ6f0S-HTOZYZJ-PUbV7-10" target="OZ6f0S-HTOZYZJ-PUbV7-15">
          <mxGeometry width="50" height="50" relative="1" as="geometry">
            <mxPoint x="2810" y="1630" as="sourcePoint" />
            <mxPoint x="2860" y="1580" as="targetPoint" />
          </mxGeometry>
        </mxCell>
      </root>
    </mxGraphModel>
  </diagram>
</mxfile>
